<svg width="1536" height="2752" viewBox="0 0 1536 2752" fill="none" xmlns="http://www.w3.org/2000/svg">
<path d="M230.498 947.35C265.576 909.71 297.762 866.329 335.391 836.325C364.072 813.456 391.374 788.519 420.881 768.704C441.548 754.826 464.321 745.648 484.312 730.913C514.108 708.95 542.529 676.11 572.37 653.95C582.83 645.793 620.588 623.691 630.986 627.952L631.433 630.149C629.675 632.767 599.876 644.122 594.802 647.298C564.099 666.531 533.533 696.775 504.875 723.508C503.747 722.912 573.286 694.45 580.257 691.496C584.27 693.019 583.745 691.639 585.972 696.079C583.394 698.603 571.723 701.612 568.073 703.161C554.736 708.812 520.748 721.063 509.13 732.923C542.937 718.889 577.042 707.28 611.368 698.126C633.001 692.715 663.537 688.185 684.015 680.777L683.306 680.218L683.423 681.088C682.201 679.356 682.603 680.13 680.471 679.929L680.789 678.251C685.081 677.493 690.372 677.128 694.285 674.462C703.55 670.969 718.782 678.511 729.018 670.319C741.04 660.704 750.411 642.686 763.98 642.161C767.591 642.726 770.309 642.914 773.931 642.957C774.724 645.05 774.551 644.078 774.73 645.667L773.948 646.617C768.992 646.591 765.509 647.155 761.044 651.115L761.061 652.08C763.823 652.156 775.215 650.195 777.777 648.936C786.596 650.22 791.848 651.008 800.549 654.751C804.958 657.046 820.491 665.981 824.013 664.229C822.467 662.543 822.238 662.229 820.547 661.154C822.199 657.861 823.355 658.862 826.664 658.26C856.062 677.975 916.452 677.12 949.31 676.565C992.873 675.83 1039.57 644.164 1083.37 654.506C1085.11 654.918 1087.18 654.817 1088.28 656.92C1082.28 662.626 1067.98 657.42 1059.97 658.828C1040.21 662.301 1014.82 667.256 995.837 676.088L992.99 675.341L992.13 676.624C993.102 679.232 992.465 678.08 994.726 679.13L994.503 680.446L993.141 681.215C991.656 682.078 991.427 682.144 990.294 684.152C987.124 684.647 986.677 684.59 983.658 684.252C965.675 682.235 947.34 686.793 929.306 685.402C925.371 684.821 897.85 682.217 896.264 682.989C898.039 685.243 920.867 689.875 923.005 688.989C942.663 694.258 964.597 695.919 983.686 702.546C1037.95 721.385 1095.17 745.977 1147.67 776.771C1168.84 789.364 1189.71 803.492 1210.23 819.12C1214.61 822.426 1218.26 825.156 1222.32 829.759C1224.89 832.67 1228.34 838.759 1230.84 839.562C1230.42 846.203 1229.85 845.68 1231.23 850.654L1234.44 853.038C1254.51 875.678 1276.7 893.295 1296.89 916.281C1332.01 956.27 1370.17 1007.27 1399.79 1059.95C1410.27 1078.59 1417.42 1098.95 1429.83 1113.85C1447.8 1139.12 1520.35 1206.19 1519.44 1250.26L1518.66 1251.58C1514.2 1248.74 1509.49 1230.7 1506.13 1223.5C1486.69 1181.92 1456.98 1158.29 1432.63 1127.41C1430.25 1124.41 1427.57 1121.18 1425.06 1118.73C1443.56 1155.93 1458.89 1186.1 1466.36 1235.62C1467.47 1242.95 1469.78 1254.23 1470.25 1261.39C1470.75 1268.92 1469.73 1281.5 1469.8 1289.25C1469.9 1301.32 1467.24 1314.98 1471.98 1324.49C1480.02 1340.63 1501 1349.28 1501.27 1374.38C1501.48 1393.3 1486.44 1411.21 1480.64 1425.95C1469.7 1453.79 1464.99 1489.07 1467.59 1522.78C1469.06 1541.88 1474.06 1556.28 1479.31 1572.65C1485.22 1591.05 1493.41 1607.74 1498.16 1627.18C1500.53 1636.94 1503.54 1655.9 1495.78 1660.68C1491.74 1655.88 1495.57 1639.01 1492.01 1629.61C1486.21 1614.31 1480.02 1590.47 1472.82 1577.69L1471.93 1577.37C1468.97 1591.75 1470.8 1608.79 1469.48 1616.41L1468.08 1617.22C1465.67 1627.23 1462.89 1645.24 1460.32 1657.09C1452.63 1692.5 1440.02 1706.34 1427.65 1731.8C1425.55 1732.52 1424.34 1733.28 1422.24 1732.41L1422.07 1730.83C1426.85 1719.31 1434.15 1708.38 1439.75 1696.49C1456.65 1660.58 1467.48 1604.89 1463.65 1557.91C1462.37 1542.18 1457.04 1505.31 1459.59 1492.23L1458.99 1490.8C1457.06 1495.07 1454.86 1511.64 1453.54 1517.94C1449.2 1538.67 1445.23 1566.27 1439.69 1585.62C1434.44 1603.01 1427.71 1619.21 1422.1 1636.16C1405.48 1686.43 1385.93 1729.39 1362.02 1769.16C1353.64 1783.1 1342.95 1795.22 1334.85 1809.36C1331.41 1815.37 1328.56 1831.61 1324.63 1838.09C1316.97 1857.03 1304.95 1873.97 1298.55 1892.61C1290.78 1915.25 1286.63 1945.06 1277.65 1967.68C1275.67 1972.67 1269.15 1980.98 1266.03 1987.05C1262.99 1988.52 1262.89 1989.54 1260.35 1988.22L1260.2 1985.85C1263.02 1980.21 1267.57 1973.78 1269.56 1969.25C1278.25 1949.58 1283.08 1923.71 1289.13 1901.28C1278.99 1912.85 1269.37 1925.79 1259.26 1937.45C1247.18 1951.39 1167.4 2039.91 1160.47 2041.45L1158.43 2039.62C1158.9 2036.16 1181.05 2012.68 1184.02 2009.45C1220.06 1970.22 1306.88 1887.24 1322.53 1821.03C1323.58 1816.63 1325.38 1812.3 1325.52 1807.52C1320.91 1806.55 1278.09 1863.62 1269.8 1871.54L1268.78 1869.37L1269.01 1866.46C1267.2 1863.36 1268.26 1864.38 1265.61 1863.68C1263.29 1865.83 1260.12 1869.81 1258.73 1873.75C1253.99 1878.25 1239.08 1891.55 1235.21 1896.4C1233.06 1898 1228.49 1901.03 1226.85 1903.3C1189.85 1927.83 1156.89 1964.73 1118.11 1990.39C1110.52 1995.9 1105.05 2000.33 1097.67 2006.7L1096.1 2005.84L1094.5 2008.13L1094.6 2010.09L1095.95 2010.71C1097.57 2011.49 1098.3 2012.02 1099.65 2014C1094.39 2017.89 1079.58 2027.16 1076.02 2031.96C1072.15 2031.58 1072.44 2031.42 1069.78 2026.44C1067.85 2027.05 1067.94 2027.97 1066.25 2031.02C1058.3 2031.33 1042.73 2044.33 1033.99 2048.19C1015.15 2056.5 992.471 2067.92 973.36 2073.15C948.049 2080.09 922.698 2085.23 897.152 2087.26C888.914 2087.92 857.524 2085.43 852.171 2087.4C832.514 2096.32 823.31 2116.51 801.827 2119.26C776.175 2122.55 758.477 2101.69 733.874 2095.13C707.652 2088.15 678.757 2083.85 652.14 2083.23C635.351 2082.85 614.834 2087.92 597.956 2090.84C592.648 2090.63 592.424 2091.37 588.891 2085.15C588.981 2082.26 588.886 2083.62 589.148 2081.05L593.027 2078.69C603.381 2077.9 613.89 2078.97 624.104 2078.38C633.286 2077.84 641.139 2076.29 650.544 2076.2L653.072 2076.41C656.951 2077.73 667.673 2078.14 671.423 2075.85C668.091 2074.44 666.551 2074.64 663.074 2074.56C658.642 2073.14 652.157 2071.07 647.747 2070.58C607.388 2068.08 558.199 2048.5 518.797 2032.67C480.709 2018.37 443.629 2002.42 406.616 1980.52C380.906 1965.31 356.976 1948.8 332.393 1928.62C322.908 1920.83 304.089 1916.56 293.029 1909.29C276.509 1901.09 259.647 1887.05 243.09 1880.28C228.004 1874.11 155.112 1851.42 149.281 1834.1C155.026 1829.87 164.048 1841.17 170.432 1844.25C190.117 1853.76 214.729 1864.15 234.642 1869.75C241.844 1877.32 239.364 1869.56 246.923 1870.66C252.523 1873.04 265.7 1885.23 272.002 1889.14C290.766 1900.81 316.477 1916.67 335.953 1920.72C314.218 1896.17 289.003 1876.65 266.576 1853.52C235.27 1820.56 205.037 1782.04 175.68 1743.7C154.618 1716.19 138.451 1673.15 117.626 1644.52C94.0153 1612.07 66.9238 1588.67 45.6094 1551.38C46.6238 1549.19 47.9308 1547.16 49.1018 1545.18C59.6373 1567.53 86.4497 1596.58 100.369 1612.83C106.458 1619.94 114.832 1633.43 121.255 1638.08L121.828 1637.3C119.46 1629 112.487 1615.75 108.886 1607.47C97.9775 1582.81 89.558 1554.93 84.0084 1525.07C82.4825 1516.95 80.3777 1501.03 80.3973 1492.58C80.4458 1471.65 83.8415 1447 78.2032 1427.26C69.3924 1416.59 51.293 1402.88 49.5508 1383.39C47.2906 1358.11 66.9215 1339.26 73.636 1318.13C80.6311 1299.73 82.4942 1280.23 83.7612 1258.87C86.6518 1210.13 73.3016 1182.42 59.3883 1144.04C55.8542 1134.29 45.7665 1093.97 58.2492 1092.51C60.3539 1095.56 57.7759 1109.66 58.9245 1115.87C62.347 1134.39 71.9945 1162.24 78.5543 1177.39C79.6494 1176.61 80.3202 1175.56 80.4023 1173.06C82.156 1119.61 105.745 1032.57 136.458 1015.7C127.711 1034.38 115.315 1052.09 107.959 1070.89C91.636 1112.59 83.4581 1164.48 89.7182 1214.66C90.9947 1224.89 91.6097 1243.93 92.5368 1255.74C97.7465 1248.24 103.375 1206.54 107.092 1191.59C116.962 1152.35 133.005 1112.63 146.623 1077.49C166.652 1025.8 193.021 983.181 221.11 946.308C223.892 942.657 230.987 919.342 234.254 912.52C241.939 896.469 250.636 882.344 258.727 866.948C274.034 832.157 277.529 784.717 301.219 762.23C303.294 760.261 307.506 758.43 309.91 757.256C302.896 769.644 294.947 777.572 289.442 793.662C282.965 812.595 276.605 831.189 271.31 851.342C281.022 839.914 290.84 828.783 300.762 817.952C330.377 785.233 360.736 754.729 391.761 726.518C397.371 721.421 406.777 708.641 413.098 711.337C410.571 718.974 371.544 753.817 363.937 762.135C322.175 807.804 249.49 862.967 230.498 947.35ZM553.951 806.294L555.167 806.309C568.235 806.306 607.282 791.693 613.706 794.702C599.652 815.359 502.191 813.624 497.888 818.78C502.167 825.459 535.392 839.629 543.387 842.01C548.578 843.556 567.693 843.998 569.156 845.706C567.113 868.017 490.304 824.332 479.375 818.888C472.419 818.368 465.427 819.668 458.484 820.35C417.299 824.396 374.747 835.33 336.042 862.056C313.132 877.876 287.819 904.824 266.358 926.546C260.019 932.961 253.852 942.646 247.645 949.636L244.862 947.175L244.987 945.209L247.958 941.546L248.193 939.052C245.199 939.287 236.851 950.216 235.323 954.738C238.068 955.94 239.695 955.487 240.771 958.638C235.209 966.494 228.687 973.324 223.404 980.857C218.441 988.318 213.81 996.993 208.674 1004.07C175.999 1049.11 146.778 1105.12 132.47 1175.6C131.212 1181.8 123.815 1211.9 123.917 1216.71C125.833 1216.59 153.513 1165.15 160.032 1157.56C177.798 1136.86 209.939 1097.16 229.58 1087.05L231.063 1085.4C246.625 1073.54 264.29 1057.75 279.912 1047.8C290.701 1040.93 325.187 1020 334.843 1022.6L335.001 1024.35C329.504 1030.22 305.196 1039.54 296.328 1045.42C269.422 1063.26 207.542 1108.23 185.418 1138.05L184.22 1139.45L184.887 1140.26C185.976 1141.6 185.582 1141.11 186.793 1142.83L186.811 1144.77C182.425 1146.6 175.942 1149.36 172.255 1153.66C144.078 1186.52 110.171 1255.89 101.96 1314.71L101.29 1312.73C93.1044 1328.57 112.418 1363.29 116.517 1379.87C115.701 1384.82 114.754 1390.13 114.081 1395.11C100.861 1417.69 89.7528 1414.88 73.2213 1409.23C99.1848 1437.89 93.5325 1450.24 103.385 1497.59C111.458 1536.39 118.701 1580.38 132.113 1614.46C152.198 1662.66 184.485 1706.18 209.805 1747.47C212.094 1751.21 222.318 1768.57 224.637 1768.85C217.67 1752.97 217.276 1742.44 213.078 1732.14C207.56 1711.3 205.916 1679.37 203.559 1655.4C202.208 1641.67 204.141 1610.85 200.802 1596.35C200.598 1595.47 194.888 1590.2 193.715 1589.42C170.187 1573.7 155.969 1566.03 146.325 1520.36C144.38 1511.15 140.487 1496.75 141.712 1486.21L142.922 1485.1C148.592 1490.54 149.408 1503.74 150.469 1513.85C150.755 1516.58 153.646 1522.16 154.094 1524.77C161.05 1565.3 180.841 1573.79 200.831 1586.34L200.7 1584.25C199.566 1566.91 195.509 1549.08 191.49 1533.49C190.966 1531.46 191.302 1528.05 191.595 1525.86L192.655 1525.01C201.343 1534.21 204.458 1567.75 207.415 1583.88C209.504 1595.28 209.545 1640.91 211.526 1648.38C214.213 1644.97 230.378 1616.6 233.236 1610.49C236.752 1602.98 238.447 1577.48 243.608 1573.35L245.281 1574.22C246.993 1580.86 244.481 1591.92 243.072 1598.92C237.607 1626.04 221.341 1639.84 212.289 1663.73C214.129 1710.03 216.087 1726.59 230.825 1765.9C246.747 1808.36 264.048 1824.36 286.739 1851.32C323.328 1894.8 362.203 1924.93 403.17 1952.4C414.212 1959.81 425.354 1969.94 436.57 1976.6C458.291 1989.36 480.376 2000.04 502.732 2008.6C524.15 2017.27 545.723 2024.67 567.414 2030.77C574.285 2032.75 596.996 2037.79 602.326 2040.28C609.766 2042.28 616.508 2043.78 624.015 2044.34C616.882 2040.86 607.293 2035.06 600.473 2032.82C585.297 2022 550.007 2005.1 537.311 1989.22C536.22 1984.09 535.499 1983.39 533.137 1979.85C535.231 1979.72 537.395 1981.28 539.605 1981.98C543.681 1987.98 557.872 1997.94 563.34 2001.86C607.109 2033.2 653.887 2050.35 700.452 2061.78C716.225 2065.23 732.523 2071.44 748.43 2067.86C771.001 2062.78 793.249 2042.03 816.283 2056.26C820.296 2058.75 823.751 2060.92 826.659 2066.73C831.431 2082.13 827.636 2093.59 819.068 2100.52C799.293 2116.54 777.52 2106.95 757.924 2095.33C755.038 2093.64 749.502 2089.91 746.923 2090.74C749.485 2095.79 771.163 2105.58 776.996 2108.73C791.585 2116.6 810.138 2112.64 823.768 2100.24C827.055 2097.24 832.564 2091.85 833.909 2087.12C855.939 2068.91 882.3 2071.05 906.166 2065.03C944.069 2055.47 982.357 2046.61 1019.76 2031.72C1070.3 2011.58 1116.85 1971.32 1164.59 1936.77C1167.94 1934.3 1170.96 1932.04 1174.24 1929.23C1180.59 1926.37 1186.94 1921.26 1193.03 1916.76C1187.53 1917.64 1181.66 1921.65 1176.15 1924.2C1174.15 1923.86 1172.9 1924.46 1170.9 1923.35L1169.9 1919C1187.14 1911.48 1200.07 1906.1 1216.82 1895.27C1234.68 1883.72 1244.64 1873.12 1260.63 1857.58C1294.42 1826.37 1323.36 1785.03 1351.84 1740.69C1372.31 1712.64 1388.52 1680.78 1402.82 1642.57C1413.77 1613.28 1419.36 1587.35 1425.04 1553.89C1426.69 1544.14 1427.35 1542.64 1428.24 1531.49C1423.45 1538.7 1412.48 1562.37 1405.73 1573.28C1383.41 1609.41 1356.26 1637.12 1329.24 1660.61C1325.62 1660.13 1324.94 1661.21 1323.01 1657.57C1334.56 1644.49 1356.02 1628.62 1366.11 1614.78L1367.21 1614.54L1367.26 1612.68L1363.51 1607.45C1373.37 1602.62 1375.92 1605.33 1385.27 1592.18C1407.36 1561.11 1424.73 1525.83 1438.25 1481.61C1443.84 1463.33 1448.73 1450.73 1450.09 1428.89C1451.5 1413.33 1443.47 1401.95 1438.91 1390.62C1421.71 1347.96 1455.6 1337.23 1473.02 1344.14C1480.2 1351.18 1489.49 1354.47 1491.6 1371.25C1490.64 1392.74 1489.3 1388.32 1481.28 1404.92C1478.13 1410.28 1475.06 1414.73 1472.96 1421.46C1473.56 1420.33 1473.27 1420.94 1473.83 1419.61L1475.04 1419.82C1478.95 1414.39 1481.12 1411.09 1484.66 1404.93C1486.81 1403.06 1493 1389.8 1494.95 1385.85C1499.71 1360.97 1482.82 1347.44 1472.32 1339.23C1460.63 1330.94 1457.88 1316.07 1453.96 1296.66C1444.33 1248.94 1435.57 1194.09 1419.91 1151.7C1407.02 1116.82 1387.9 1088.23 1370.65 1060.85L1332.28 999.583C1334.42 1008.46 1340.23 1026.07 1341.46 1034.11C1347.85 1075.5 1347.1 1118.78 1349.61 1161.08C1354.9 1170.08 1374.63 1183.7 1381.94 1188.55C1394.11 1196.63 1414.29 1254.54 1407.93 1273.92L1406.77 1273.45C1404.17 1267.77 1401.73 1257.39 1400.71 1250.31C1393.81 1202.54 1374.72 1185.98 1349.52 1174.59C1349.79 1192.87 1359.69 1222.37 1358.44 1231.3L1357.14 1231.71C1352.7 1228.7 1351.16 1216.85 1348.53 1208.41C1339.14 1178.3 1342.55 1145.67 1340.87 1115.44L1340.76 1113.48C1332.83 1123.21 1318.64 1146.4 1313.79 1162.11C1312.45 1166.43 1311.12 1182.17 1308.97 1186.52H1307.91C1305.75 1183.58 1305.65 1183.82 1304.73 1179.02C1304.78 1172 1305.93 1170.32 1307.26 1164.09C1313.88 1133.14 1327.63 1126.92 1338.3 1098.38C1337.38 1044.8 1335.6 1022.79 1316.24 978.531C1304.53 951.759 1281.38 924.635 1265.36 905.977C1239.58 873.88 1210.8 851.188 1182.89 826.771C1125.96 776.97 1065.53 748.916 1003.09 731.871C987.526 727.622 972.244 721.654 956.125 718.263C958.821 721.179 965.29 723.926 968.471 725.838C988.123 737.666 1008.49 749.917 1027.43 764.945C1042.65 777.016 1057.96 794.584 1072.05 810.23C1077.98 816.813 1088.12 827.853 1093.17 836.168L1094.66 840.198L1095.91 840.295C1100.72 848.793 1111.96 862.915 1117.67 871.563C1128.65 887.599 1138.49 906.005 1147.19 926.008C1150.01 932.492 1156.46 942.166 1152.94 949.665C1151.93 949.728 1150.7 950.056 1149.96 948.118C1126.17 885.284 1082.06 826.636 1044.82 790.957C1050.41 815.467 1055.89 840.994 1062.89 864.24C1064.15 868.445 1067.3 873.71 1067.48 877.69C1053.54 880.217 1043.31 801.871 1037.88 790.216C1026.66 766.108 982.447 741.111 965.412 732.176C927.135 712.093 877.69 697.82 838.207 691.269C804.936 685.748 785.301 727.984 746.867 693.233C742.877 677.955 743.128 681.282 746.689 665.933C743.256 667.34 740.806 672.256 737.792 674.997C734.477 678.014 727.684 682.186 724.101 683.13C705.035 688.147 685.879 689.974 666.713 694.702C623.915 705.256 580.547 713.484 538.313 729.999C520.229 737.071 499.561 748.502 482.123 758.73C480.573 756.064 480.795 755.98 479.757 752.616C476.368 751.313 442.331 775.36 437.158 779.683C431.676 783.077 395.245 808.434 391.741 813.276L393.502 812.645C396.025 815.893 395.257 813.803 396.012 818.977C391.698 821.825 386.738 824.512 383.016 829.069L383.432 829.647C436.553 809.072 488.922 813.428 542.535 806.577C549.531 805.683 559.807 780.304 566.421 774.4C574.715 765.115 578.8 762.31 588.557 757.404C598.235 752.535 651.911 736.319 658.028 740.408L658.223 742.37C629.943 754.644 595.064 752.606 570.06 780.266C563.228 787.822 560.024 798.327 553.951 806.294ZM793.36 2101.15C802.246 2102.83 809.998 2101.76 817.332 2091.75C820.592 2087.31 824.421 2079.94 821.496 2072.81C819.565 2071.23 819.107 2070.55 816.981 2070.23L817.69 2068.21C814.542 2060.23 808.497 2062.69 804.356 2063.1L803.669 2065.05C807.844 2068.58 819.956 2077.48 817.003 2088.34C816.015 2089.14 812.075 2092.49 811.472 2093.71C808.882 2098.97 789.649 2098.21 788.917 2099.57L793.36 2101.15ZM771.464 2065.21C768.903 2066.7 755.083 2073.44 754.575 2074.6C756.3 2076.18 755.384 2075.79 757.31 2075.79C761.764 2076.33 766.184 2077.41 770.504 2074.98C770.806 2074.81 771.113 2074.67 771.414 2074.5C772.966 2073.62 774.529 2072.51 775.477 2069.96C775.617 2069.59 775.634 2069.12 775.729 2068.7C775.768 2068.52 775.824 2068.35 775.868 2068.17C773.357 2064.54 774.763 2065.54 771.464 2065.21ZM1392.86 1059.7C1380.33 1036 1353.16 996.897 1337.52 978.363C1330 967.479 1302.79 927.964 1293.97 924.817C1299 932.37 1308.42 943.751 1314.24 951.915C1320.77 961.06 1335.17 986.633 1340.9 991.299C1351.08 1005.47 1361.06 1020.65 1371.07 1035.21C1373.91 1039.35 1382.77 1053.88 1385.07 1056.58C1390.75 1066.71 1396.68 1075.7 1402.28 1085.62C1404.39 1089.59 1405.78 1092.74 1408.4 1095.54L1409.31 1094.86C1408.64 1089.89 1406.45 1086.34 1404.52 1082.4C1400.52 1075 1397.07 1067.18 1392.86 1059.7ZM1383.39 1069.73C1388.02 1077.38 1394.15 1088.36 1399.23 1094.49L1399.37 1093.53C1394.79 1083.06 1391.59 1077.37 1385.93 1068.77C1379.57 1060.11 1370.21 1043.2 1362.72 1032.35C1358.23 1025.66 1353.19 1017.74 1348.35 1012.16C1348.86 1016.32 1358.74 1031.23 1360.89 1034.61C1364 1039.05 1380.84 1064.63 1383.39 1069.73ZM120.033 1604.55C117.012 1595 99.5962 1535.75 97.0549 1532.88L96.0481 1533.92C93.3768 1553.3 105.889 1579.59 111.113 1595.27C112.201 1598.53 116.407 1607.15 117.022 1609.64C121.75 1619.46 129.256 1631.08 132.991 1639.73C135.722 1644.23 138.228 1649.15 141.575 1651.68C141.729 1647.87 136.399 1640.75 134.708 1638.25C130.306 1631.13 124.018 1613.76 120.033 1604.55ZM755.172 666.689C753.442 670.92 751.628 675.224 749.97 679.526C758.248 699.134 764.052 700.154 776.287 698.57C776.672 698.712 777.057 698.853 777.437 698.995C780.545 698.416 781.076 698.414 783.956 696.538L783.922 695.371C775.383 692.234 759.074 692.064 757.55 671.941C759.152 666.607 761.345 665.306 764.583 662.683L764.521 661.534L755.172 666.689ZM223.383 1793.73C230.93 1806.97 255.335 1833.97 264.753 1841.74C262.877 1836.66 245.47 1817.94 241.181 1812.06C235.423 1804.16 229.527 1794.07 223.832 1786.78C220.661 1781.93 217.582 1777.6 214.301 1773.01C200.5 1755.75 185.727 1733.89 172.988 1718.36C164.718 1704.94 149.901 1677.26 140.974 1669.75C145.796 1679.48 163.829 1716.09 169.065 1721.68C184.853 1746.61 194.36 1757.98 211.851 1778.75C215.895 1785.57 219.779 1787.91 223.383 1793.73ZM179.6 1029.14C186.092 1013.77 224.387 968.579 227.115 953.079L226.592 952.041C216.17 957.421 185.013 1010.59 177.108 1027.52C173.263 1035.34 161.267 1056.82 160.428 1065.14L161.182 1065.78C162.485 1063.94 178.057 1032.67 179.6 1029.14ZM413.214 1972.24C400.086 1964.42 355.217 1929.01 346.51 1927.8L341.98 1927.12C361.167 1945.78 391.514 1964.26 412.417 1976.38C418.785 1980.03 425.184 1983.5 431.612 1986.79L441.744 1992.02C445.436 1993.73 451.403 1996.07 454.692 1998.83C461.148 2001.35 467.351 2005.43 473.368 2007.56L473.857 2006.25L472.181 2003.71C466.393 2002.44 462.918 1999.72 457.341 1996.9C452.334 1993.82 447.355 1991.45 442.257 1988.93C439.174 1987.06 436.333 1985.6 433.211 1984.02C428.42 1980.52 418.468 1975.27 413.214 1972.24ZM1376.72 1720.56C1368.56 1734.98 1360.13 1748.92 1351.46 1762.37C1345.77 1771.29 1335.26 1785.74 1331.18 1796.06L1331.82 1797.45C1342.78 1793.35 1369.32 1742.12 1378.38 1725.81C1379.8 1723.91 1387.35 1706.66 1389.05 1702.88C1391.29 1697.93 1392.18 1695.87 1393.94 1690.35L1393.66 1688.84C1389.89 1692.57 1388.4 1697.22 1385.67 1703.45C1382.57 1709.08 1379.78 1715.01 1376.72 1720.56ZM1114.75 1985.22C1119.24 1982.75 1121.27 1980.97 1125.41 1977.39C1131.64 1973.44 1169.11 1945.77 1172.06 1940.04C1167.92 1940.69 1130.15 1970.54 1123.98 1975.44C1120.11 1978.11 1116.27 1980.9 1112.45 1983.81C1108.8 1986.36 1094.05 1995.08 1092.78 2000.22C1098.03 1998.04 1109.33 1989.3 1114.75 1985.22ZM1149.21 789.168C1153.4 792.462 1169.96 804.294 1173.94 807.041C1183.7 813.785 1213.63 840.153 1221.5 842.307L1221.08 840.487C1208.79 822.673 1167.62 795.685 1151.04 786.626C1147.9 784.232 1134.84 777.589 1131.11 775.534C1130.31 774.708 1119.64 769.046 1117.55 767.727C1109.76 763.633 1106.92 761.451 1098.67 758.73C1099.08 760.266 1101.91 761.499 1103.17 762.295C1107.64 765.068 1112.12 767.733 1116.63 770.29C1120.06 772.387 1126.21 776.458 1129.48 777.821C1133.38 780.126 1145.74 787.926 1149.21 789.168ZM1406.71 1107.35L1406.52 1109.04C1413.62 1120.28 1420.07 1133.05 1426.13 1142.82C1425.09 1128.37 1413.14 1116.04 1407.26 1107.33L1406.71 1107.35ZM962.197 712.827L977.189 717.278C987.972 720.23 1005.78 726.899 1016.06 726.803C1004.08 722.603 998.465 717.526 984.981 716.176C977.77 713.565 970.508 711.407 963.213 709.708C960.668 709.449 957.342 708.264 954.752 707.509C948.099 706.006 904.352 696 901.377 697.111C905.39 699.539 944.036 709.83 947.624 709.241C952.642 710.802 957.135 711.787 962.197 712.827ZM107.239 1377.77C105.394 1373.36 105.425 1371.69 103.101 1370.55C101.628 1381.15 102.495 1387.21 96.7279 1393.14C87.4962 1402.64 79.4948 1408.32 72.7909 1389.82C69.3165 1380.24 71.8901 1370.7 70.1476 1366.43C67.7688 1374.87 67.0471 1381.17 68.7511 1390.12C68.9208 1391 69.0988 1391.88 69.2847 1392.75C75.7128 1403.81 81.1882 1407.6 90.2395 1407.3C101.891 1406.91 109.587 1400 107.239 1377.77ZM1472.79 1357.2C1482.92 1361.97 1478.09 1378.65 1480.6 1387.6C1482.67 1383.02 1482.56 1374.18 1482.05 1368.61C1480.04 1346.63 1462.79 1346.83 1454.32 1347.88C1448.69 1353.23 1438.32 1360.46 1443.84 1376.47C1444.8 1379.24 1445.67 1381.17 1447.42 1382.37C1449.72 1378.21 1446 1360.94 1457.44 1357.31C1464.49 1355.07 1465.42 1352.13 1472.79 1357.2ZM54.5407 1385.76C58.8553 1394.6 60.9394 1399.85 67.089 1404.53L67.6002 1403.4C62.4955 1394.36 61.2386 1392.89 58.1671 1381.04C61.8905 1349.71 67.8693 1353.17 77.673 1332.11C77.054 1329.78 77.5418 1330.5 76.329 1329.71C65.8527 1349.92 53.165 1354.25 54.5407 1385.76ZM1396.47 1685.62C1398.17 1681.26 1401.54 1673.41 1402.31 1668.72L1401.64 1667.3C1399.26 1672.72 1397.38 1677.52 1395.21 1683.16C1395.83 1685.27 1395.39 1684.47 1396.47 1685.62ZM429.733 777.144C433.618 776.038 462.94 754.06 467.069 749.149C455.319 756.916 435.285 764.612 425.21 774.42C404.179 785.992 388.346 802.57 368.85 817.315C359.191 825.186 311.89 862.927 306.367 872.774C308.631 873.905 318.556 863.378 320.931 861C336.32 845.597 352.606 838.779 368.934 824.667C390.165 807.22 408.006 792.497 429.733 777.144ZM86.9777 1372.7C84.3238 1379.57 80.4854 1384.3 78.5766 1390.41C80.462 1393.18 84.6732 1393.99 86.7221 1391.08C90.5281 1387.43 94.3848 1385.02 95.6674 1377.71C94.046 1374.7 92.2181 1374.08 89.8974 1374.6C88.2006 1372.09 89.1472 1372.68 86.9777 1372.7ZM578.756 2043.96C587.881 2046.69 609.353 2053.74 617.747 2053.53C624.612 2055.46 633.749 2055.88 639.9 2058.29C639.615 2058.15 667.913 2062.76 668.147 2062.75L668.482 2061.37C668.142 2061.06 645.386 2055.77 642.836 2055.03C636.35 2053.41 630.863 2052.93 624.116 2050.86C614.192 2048.72 590.371 2044.85 581.876 2039.98C578.264 2039.76 568.81 2037.64 566.728 2038.3C569.876 2042.56 574.871 2043.2 578.756 2043.96ZM1434.17 1546.14C1432.1 1553.81 1426.51 1577.72 1427.09 1585.52C1431.88 1577.77 1435.1 1557.5 1436.99 1547.14C1438.35 1537.99 1441.42 1517.99 1441.71 1509.25L1441.22 1508.09C1439.18 1511.72 1434 1541.27 1434.17 1546.14ZM1048.6 2026.79C1036.99 2034.25 1022.3 2037.46 1012.6 2043.56C997.941 2048.91 982.698 2054.77 967.974 2059.01C942.467 2066.36 916.96 2071.31 891.353 2078.06C907.165 2089.54 1000.25 2058.62 1019.72 2047.52C1027.47 2045.55 1043.23 2034.49 1050.9 2029.37C1053.64 2028.05 1058.83 2026.03 1060.63 2021.97C1059.27 2025.67 1060.08 2021.27 1058.76 2021.73C1056.19 2022.64 1050.92 2025.51 1048.6 2026.79ZM773.541 661.895C770.532 664.117 768.462 665.049 766.324 669.278C765.336 674.399 765.386 671.881 766.151 677.106C769.952 685.362 777.224 688.294 782.694 684.277L784.642 679.135C785.133 676.687 785.195 676.633 786.283 674.569L784.631 669.404C788.415 667.567 790.57 670.222 792.361 667.991C791.446 665.638 791.357 664.35 789.392 664.205C783.431 663.761 779.647 661.214 773.541 661.895ZM161.132 1685.76C169.542 1700.7 192.061 1738.56 201.408 1747.84C196.778 1737.67 168.223 1692.03 161.897 1683.23C158.561 1674.59 154.667 1668.54 149.752 1662.98L149.077 1663.27C151.508 1669.49 157.764 1680.55 161.132 1685.76ZM126.588 1163.16C121.813 1175.37 104.101 1256 107.442 1260.45C110.095 1249.32 128.072 1170.35 127.24 1164.23L126.588 1163.16Z" fill="#F8F8F5"/>
<path d="M383.392 1870.11C386.598 1870.99 406.271 1890.5 412.087 1894.67C426.441 1904.96 439.263 1911.95 454.324 1918.82C459.219 1921.06 474.657 1924.62 476.8 1929.08L476.111 1931.49C469.172 1929.58 461.115 1928.3 454.208 1925.81C437.938 1919.94 391.412 1893.33 382.191 1872.88L383.392 1870.11Z" fill="#F8F8F5"/>
<path d="M1070.96 1936.28C1052.93 1925.44 1025.25 1910.88 1007.02 1911.39C1003.69 1911.48 997.174 1911.98 995.03 1908.14C997.352 1902.37 1015.64 1905.73 1019.85 1906.38C1035.28 1908.78 1049.22 1916.7 1063.92 1924.74C1066.1 1925.93 1076.91 1932.78 1077.7 1932.91C1105.32 1937.47 1143.39 1927.77 1169.9 1919L1170.91 1923.35C1172.9 1924.46 1174.15 1923.86 1176.16 1924.2C1175.77 1924.48 1173.53 1926.05 1173.25 1926.39C1169.58 1927.45 1161.56 1929.15 1158.47 1931.1C1149.63 1934.14 1138.2 1935.49 1129.13 1937.22C1092.36 1944.19 1055.11 1943.28 1018.33 1949.74C1008.57 1976.79 994.651 1993.31 977.382 2000.5C964.707 2005.79 920.463 2024.23 910.684 2020.1L910.188 2018.37C913.52 2014.12 920.948 2013.17 925.397 2011.68C949.307 2003.69 978.961 2000.56 999.138 1974.63C1004.07 1968.3 1008.35 1958.24 1012.14 1949.98C1005.09 1951.59 955.631 1964.65 953.164 1963.51L953.114 1962.24C965.471 1947.31 1052.65 1937.43 1070.96 1936.28Z" fill="#F8F8F5"/>
<path d="M537.314 1989.22C503.982 1964.69 465.538 1913.28 437.208 1872.83C431.64 1864.87 410.698 1829.13 409.621 1818.17L410.443 1816.29C416.16 1816.34 427.08 1843.54 430.988 1851.67C440.927 1872.33 520.469 1972.86 528.004 1971.76L528.205 1969.72C521.837 1947.85 518.204 1923.18 509.784 1903.35C508.282 1899.81 503.64 1892.46 501.47 1888.38L501.658 1886.56L503.886 1885.49C519.534 1890.41 531.023 1962.37 539.046 1980.72L539.608 1981.98C537.398 1981.28 535.234 1979.72 533.14 1979.85C535.502 1983.39 536.223 1984.09 537.314 1989.22Z" fill="#F8F8F5"/>
<path d="M1323.02 1657.57C1324.95 1661.21 1325.63 1660.13 1329.24 1660.61C1328.32 1661.69 1327.85 1662.55 1327.01 1663.86C1326.83 1695.79 1310.49 1721.15 1296.9 1738.52C1290.87 1746.24 1282.44 1758.47 1275 1758.56C1275.32 1753.68 1292.45 1734.93 1296.17 1729.88C1299.96 1724.82 1303.53 1719.25 1306.83 1713.19C1312.3 1703.06 1321.33 1684.07 1321.18 1669.29C1318.98 1669.23 1308.86 1677.88 1305.95 1680.62C1296.21 1689.81 1228.13 1737.93 1221.29 1729.45C1222.62 1724.48 1235.13 1719.73 1238.7 1718.05C1268.19 1704.14 1295.68 1681.53 1323.02 1657.57Z" fill="#F8F8F5"/>
<path d="M1093.17 836.168C1115.5 831.087 1163.16 864.593 1183.15 888.368C1184.39 889.844 1185.15 891.651 1185.88 893.968L1185.86 895.352C1185.14 895.673 1184.42 895.994 1183.7 896.315C1174.9 889.793 1163.51 876.845 1155.02 870.243C1143.37 861.179 1107.71 840.078 1095.91 840.295L1094.66 840.198L1093.17 836.168Z" fill="#F8F8F5"/>
<path d="M229.582 1087.05C227.155 1084.97 227.131 1085.81 225.902 1082.32C227.225 1055.67 271.732 987.317 280.645 994.727L280.632 996.79C276.415 1003.86 269.653 1010.86 264.644 1016.31C256.346 1025.33 230.495 1068.71 231.064 1085.4L229.582 1087.05Z" fill="#F8F8F5"/>
<path d="M185.421 1138.05C202.62 1134.14 220.38 1128.88 237.527 1124.02C248.405 1120.93 259.377 1114.93 270.401 1111.56L271.087 1113.34C266.357 1126.2 200.069 1140.75 186.814 1144.77L186.796 1142.83C185.585 1141.11 185.979 1141.6 184.89 1140.26L184.223 1139.45L185.421 1138.05Z" fill="#F8F8F5"/>
<path d="M1366.11 1614.78C1359.98 1612.68 1316 1627.72 1307.36 1631.56C1302.46 1633.74 1288.21 1640.42 1283.39 1639.75L1282.8 1637.8C1287.28 1626.66 1353.76 1609.91 1363.51 1607.45L1367.26 1612.68L1367.21 1614.54L1366.11 1614.78Z" fill="#F8F8F5"/>
<path d="M773.543 661.895C779.649 661.214 783.434 663.761 789.394 664.205C791.359 664.35 791.448 665.638 792.364 667.991C790.572 670.222 788.418 667.567 784.634 669.404L786.286 674.569C785.197 676.633 785.136 676.687 784.645 679.135L782.697 684.277C777.227 688.294 769.954 685.362 766.154 677.106C765.389 671.881 765.339 674.399 766.327 669.278C768.464 665.049 770.535 664.117 773.543 661.895Z" fill="#F8F8F5"/>
<path d="M86.9792 1372.7C89.1487 1372.68 88.2021 1372.09 89.8989 1374.6C92.2196 1374.08 94.0475 1374.7 95.6689 1377.71C94.3863 1385.02 90.5296 1387.43 86.7236 1391.08C84.6747 1393.99 80.4635 1393.18 78.5781 1390.41C80.487 1384.3 84.3253 1379.57 86.9792 1372.7Z" fill="#F8F8F5"/>
<path d="M1434.17 1546.14C1434.85 1545.29 1434.52 1545.85 1435.11 1544.02L1436.78 1538.91L1436.23 1542.65L1437.17 1543.99L1436.99 1547.14C1435.1 1557.5 1431.89 1577.77 1427.1 1585.52C1426.51 1577.72 1432.1 1553.81 1434.17 1546.14Z" fill="#F8F8F5"/>
<path d="M240.773 958.638C239.697 955.487 238.069 955.94 235.324 954.738C236.852 950.216 245.201 939.287 248.194 939.052L247.959 941.546L244.988 945.209L244.863 947.175L247.647 949.636C245.292 952.956 243.238 955.576 240.773 958.638Z" fill="#F8F8F5"/>
<path d="M1406.71 1107.35L1407.27 1107.33C1413.14 1116.04 1425.09 1128.37 1426.14 1142.82C1420.07 1133.05 1413.62 1120.28 1406.52 1109.04L1406.71 1107.35Z" fill="#F8F8F5"/>
<path d="M1230.84 839.562C1257.62 849.026 1279.47 862.658 1304.9 879.233C1329.15 895.04 1385.64 900.063 1405.41 927.602L1405.42 930.513L1404.45 932.18C1401.31 930.604 1396.64 926.035 1392.99 923.781C1370.66 910.023 1348.83 902.721 1325.43 897.688L1325.36 899.552C1341.1 915.544 1365.62 936.915 1379.66 954.706C1388.2 965.529 1443.07 1024.98 1445.79 1032.95L1445.3 1035.03C1440.09 1036.19 1427.52 1018.6 1422.68 1013.32C1367.8 953.514 1312.4 881.675 1249.1 854.542C1246.53 853.44 1235.28 847.774 1233.83 849.07L1234.44 853.039L1231.23 850.654C1229.85 845.68 1230.42 846.203 1230.84 839.562Z" fill="#F8F8F5"/>
<path d="M597.957 2090.84C584.355 2098.43 509.452 2120.5 498.362 2109.59L498.293 2108.38C501.419 2105.21 507.997 2105.31 511.684 2105.45C528.076 2106.08 544.145 2101.81 560.215 2096.44C568.922 2093.52 577.596 2088.67 586.487 2086.9L587.592 2086.69L587.598 2085.79C537.27 2081.98 487.861 2072.58 439.439 2045.52C434.215 2042.6 422.596 2036.2 418.508 2031.45L418.578 2029.28C419.932 2027.99 420.664 2027.11 422.372 2028.19C469.31 2057.8 518.3 2071.68 567.845 2077.45C576.05 2078.4 584.662 2078.02 593.029 2078.69L589.149 2081.05C588.887 2083.62 588.982 2082.26 588.893 2085.15C592.426 2091.37 592.649 2090.63 597.957 2090.84Z" fill="#F8F8F5"/>
<path d="M1258.73 1873.75C1260.12 1869.81 1263.29 1865.83 1265.62 1863.68C1268.27 1864.38 1267.21 1863.36 1269.01 1866.46L1268.79 1869.37L1269.81 1871.54C1268.39 1874.97 1263.77 1878.3 1261.21 1881.31C1243.35 1902.23 1225.06 1917.55 1205.74 1933.98C1194.97 1943.14 1185.85 1953.03 1174.31 1962.58C1150.85 1982.01 1125.3 1998.44 1100.79 2013.72C1100.41 2013.81 1100.03 2013.91 1099.65 2014C1098.3 2012.02 1097.57 2011.49 1095.95 2010.71L1094.61 2010.09L1094.51 2008.13L1096.1 2005.84L1097.68 2006.7C1103.11 2006.05 1113.4 1998.65 1118.92 1995.07C1123.06 1992.96 1130.4 1987.24 1134.87 1984.5C1161.17 1968.33 1185.53 1944.78 1210.02 1921.52C1216.1 1915.75 1221.98 1912.95 1227.75 1907.56C1229.96 1904.6 1233.17 1902.38 1235.77 1900.25C1239 1897.24 1258.29 1878.28 1258.73 1873.75Z" fill="#F8F8F5"/>
<path d="M234.642 1869.75C224.579 1854.76 207.32 1842.94 195.798 1830.43C182.504 1816 167.158 1801.16 154.419 1785.45C143.252 1771.69 113.389 1745.52 105.867 1727.86C109.404 1725.32 127.08 1746.27 131.327 1750.9C143.348 1763.85 155.324 1776.93 167.258 1790.14C193.198 1818.88 219.775 1845.75 246.922 1870.66C239.364 1869.56 241.843 1877.32 234.642 1869.75Z" fill="#F8F8F5"/>
<path d="M990.297 684.152C991.43 682.144 991.659 682.078 993.143 681.215L994.505 680.446L994.728 679.13C992.468 678.08 993.104 679.232 992.133 676.624L992.993 675.341L995.839 676.088L996.688 676.382C1007.65 679.983 1023.71 681.02 1035.33 683.198C1069.47 689.598 1133.93 710.081 1163.12 742.314C1149.95 740.03 1126.95 721.366 1113.56 715.551C1079.02 700.561 1025.11 682.765 990.297 684.152Z" fill="#F8F8F5"/>
<path d="M1066.25 2031.02C1067.94 2027.97 1067.85 2027.05 1069.78 2026.44C1072.44 2031.42 1072.15 2031.58 1076.02 2031.96C1040.54 2062.73 1007.59 2107.46 968.582 2125.67C963.475 2128.05 947.267 2135.76 942.98 2131.67L943.031 2130.26C944.677 2128.72 944.66 2128.71 946.508 2128.07C980.298 2116.72 1010.5 2089.1 1040.04 2058.75C1048.23 2050.33 1058.91 2041.49 1066.25 2031.02Z" fill="#F8F8F5"/>
<path d="M580.258 691.496C589.78 689.599 600.451 685.128 610.241 683.036C635.151 677.713 669.571 671.128 694.286 674.462C690.373 677.128 685.082 677.493 680.79 678.251L680.472 679.929C659.932 681.585 642.948 682.2 622.146 686.621C614.025 688.347 591.772 695.919 585.973 696.079C583.746 691.639 584.271 693.019 580.258 691.496Z" fill="#F8F8F5"/>
<path d="M763.98 642.161C787.763 631.24 804.066 647.933 826.665 658.26C823.355 658.862 822.2 657.861 820.548 661.154C818.215 661.439 806.17 654.047 803.095 652.261C795.817 647.197 782.578 644.394 774.73 645.667C774.552 644.078 774.725 645.05 773.932 642.957C770.31 642.914 767.592 642.726 763.98 642.161Z" fill="#F8F8F5"/>
<path d="M45.6111 1551.38C39.4798 1538.83 32.2038 1525.86 31.2266 1509.34L32.0073 1508C36.4564 1511.7 44.0286 1535.24 49.1035 1545.18C47.9326 1547.16 46.6255 1549.19 45.6111 1551.38Z" fill="#F8F8F5"/>
</svg>
