<svg width="1280" height="698" viewBox="0 0 1280 698" fill="none" xmlns="http://www.w3.org/2000/svg">
<path d="M618.861 227.431C623.686 227.218 629.647 227.385 634.559 227.393C634.772 232.555 634.616 237.846 634.528 243.021C632.047 242.906 629.484 242.449 627.591 243.748C627.234 245.779 627.409 246.147 628.016 248.14C631.266 250.786 630.622 250.49 631.291 254.625C632.491 255.267 636.659 254.935 638.584 254.984C640.434 256.89 638.422 257.349 639.722 260.509C646.409 260.439 641.066 264.484 643.391 268.227L646.51 268.582C648.278 270.791 646.241 277.388 647.61 280.593L650.122 281.269C654.141 285.173 649.966 290.504 652.978 296.075C653.941 296.718 655.591 297.702 655.691 298.857C655.941 301.696 656.453 305.841 654.728 308.22C652.172 308.758 651.797 309.466 651.797 312.28C651.803 320.288 651.878 328.291 651.872 336.303L651.928 392.142C651.934 395.482 652.378 411.892 651.172 414.305C642.766 414.393 648.991 420.713 646.684 426.559C645.566 426.735 644.628 426.838 643.503 426.944C642.347 428.857 643.828 432.561 642.553 434.436C641.322 434.438 641.341 434.39 640.134 434.878L640.016 437.412C638.191 439.622 637.391 437.263 634.628 439.039C634.678 444.766 633.566 441.083 630.666 443.065L630.397 446.178C628.591 447.84 624.879 445.768 622.118 447.632C623.248 452.584 627.422 452.173 630.603 455.659C630.885 455.968 630.066 456.913 631.166 458.775C631.709 458.81 632.247 458.853 632.791 458.904C636.903 459.307 633.728 460.9 635.603 463.177C637.166 463.284 638.047 463.189 639.328 464.023C639.297 465.095 639.097 466.411 639.922 467.287L642.772 467.524C644.272 469.351 646.866 473.259 648.378 474.824C650.178 475.212 650.453 475.146 651.616 476.446C651.741 478.504 651.934 477.734 650.991 479.431C646.516 479.273 646.872 483.906 643.884 487.532L640.709 487.707C637.084 492.182 632.497 498.379 628.416 502.342C626.128 504.562 620.452 505.731 618.747 510.791C617.231 516.071 614.644 514.336 613.815 515.087C612.643 516.15 601.551 530.092 600.789 530.253C594.745 531.533 593.451 537.474 589.09 541.987L586.769 541.597C584.563 543.965 587.091 544.151 585.06 546.631L581.861 546.759C579.597 548.343 581.817 548.61 580.219 551.37C578.659 551.44 578.446 551.409 576.995 551.92C576.953 552.411 576.679 554.887 576.516 555.051C572.334 559.242 562.282 565.154 560.728 570.907L560.599 571.406C559.307 571.633 558.679 571.78 557.423 572.162C557.378 572.505 557.328 572.847 557.271 573.189C556.502 577.856 555.965 574.128 552.678 576.506C552.544 577.656 552.399 578.806 552.241 579.953C550.633 580.445 551.283 580.38 549.54 579.891C548.945 575.502 549.448 577.087 545.581 574.525C543.294 573.01 542.931 572.056 541.668 569.81L541.459 569.448L541.173 568.934C534.688 568.531 538.724 567.915 536.542 564.872C530.03 563.8 534.607 563.58 532.163 560.559C530.533 560.624 530.344 560.674 528.796 560.248C528.465 558.72 528.448 558.18 528.384 556.607C526.003 554.454 523.451 552.497 520.752 550.757L520.218 548.217C518.906 548.129 517.278 548.224 516.315 547.447L516.375 544.548C514.695 542.431 514.332 544.84 512.231 543.16C512.923 538.408 507.503 538.295 503.909 534.885L503.928 532.293C502.192 530.619 501.792 532.511 499.533 530.772L499.518 527.927C498.094 526.272 495.71 527.04 495.342 526.434C494.052 524.31 493.067 521.977 491.14 520.086C489.574 519.979 489.381 519.978 487.91 519.477C487.582 518.218 487.481 517.574 487.313 516.281C484.899 514.52 482.468 512.781 480.022 511.065L479.959 508.303C477.971 506.319 477.819 508.419 475.389 506.822L475.515 504.232C473.878 502.342 474.033 504.024 471.311 502.698L471.285 500.188C469.818 498.016 470.228 500.415 467.44 498.694L467.457 496.124C466.321 494.179 465.893 495.597 463.752 494.556C463.354 494.363 464.155 493.24 462.534 491.631C461.169 491.728 460.356 491.969 459.262 491.197C459.27 484.879 457.465 488.942 454.782 486.528L454.984 484.245C453.513 482.472 452.286 483.956 450.663 482.397L450.916 479.966C449.501 477.542 449.806 480.026 446.776 478.32L446.883 476.161C445.697 474.276 445.57 475.558 442.719 474.176L442.816 471.918L441.895 470.935L439.328 470.958C437.353 468.97 439.961 469.532 438.011 467.087C432.113 466.58 435.886 465.964 434.027 463.136L431.165 463L430.825 462.738C430.133 462.205 430.713 459.151 430.343 458.916C428.15 457.529 426.603 456.949 424.868 454.849C423.99 450.301 424.605 415.713 424.645 409.148L424.723 310.075C424.72 306.517 424.342 282.335 425.228 280.89L428.815 280.802C430.252 278.542 427.919 272.356 429.749 268.794L432.256 268.727C434.853 267.224 432.823 262.963 435.023 260.454C436.776 260.363 437.144 260.443 438.696 259.727L439.018 256.909C442.201 252.953 447.371 254.799 448.552 248.236C451.752 247.719 453.582 248.695 455.609 247.479C455.819 240.412 463.951 246.275 468.314 243.756C469.831 242.88 467.815 241.694 470.068 239.799C475.352 239.23 483.711 239.543 489.21 239.582L521.706 239.719L581.229 239.654C585.911 239.651 607.337 238.897 609.71 240.447C609.988 241.919 609.995 241.993 610.76 243.262C613.372 244.227 620.47 243.861 623.34 243.426L623.736 242.383C622.039 240.857 621.3 242.223 619.394 240.497C618.517 237.2 618.822 231.115 618.861 227.431ZM486.668 385.736V402.113L502.805 402.238C502.966 406.868 502.362 414.11 502.975 418.363C497.517 418.594 492.41 418.496 486.946 418.4C487.108 413.215 486.933 407.209 486.907 401.96L470.17 401.845C470.585 396.713 470.358 390.782 470.278 385.568L460.683 385.455L460.823 402.11L470.17 401.845C470.06 403.495 469.749 409.325 470.162 410.531C472.391 417.039 473.561 415.294 472.966 422.549C488.196 422.167 504.786 422.475 520.092 422.477L604.75 422.554C604.713 420.298 604.465 416.312 605.538 414.589L607.474 414.756C607.65 415.089 607.831 415.419 608.017 415.746C609.209 417.805 609.088 417.919 610.859 418.392L611.898 417.549C611.799 417.833 615.383 405.948 615.421 407.833C614.802 376.979 616.916 344.359 615.379 313.652L613.836 312.337C611.819 312.676 612.034 313.981 610.801 315.333C608.994 317.312 590.696 316.384 587.024 316.364C587.132 307.368 587.032 298.175 587.031 289.162C595.13 289.049 603.229 288.986 611.329 288.971C611.351 293.093 610.779 302.43 613.377 305.121L614.341 304.568C616.094 300.54 616.056 295.628 615.363 291.36C614.666 287.066 613.055 289.57 611.935 284.233C603.876 283.835 592.534 284.188 584.201 284.16L584.092 272.72C573.179 272.824 474.764 272.063 472.78 273.589L473.071 275.94C471.35 277.495 470.914 276.115 467.893 277.08C467.681 278.442 467.688 278.649 467.101 279.875L462.258 280.263C459.437 284.624 460.603 358.533 460.617 369.197L470.441 369.252C470.245 374.507 470.316 380.307 470.27 385.606L486.668 385.736ZM618.101 280.396L630.566 280.253L630.572 267.903L618.084 267.984L618.101 280.396ZM594.225 260.149L606.68 260.076C606.334 255.446 606.308 252.078 606.382 247.431C601.814 247.292 598.948 247.311 594.474 246.306L594.225 260.149ZM593.835 309.206L602.335 309.261C603.381 307.822 602.88 303.074 602.843 300.839C600.1 300.826 597.357 300.862 594.616 300.949C593.777 302.809 593.9 306.967 593.835 309.206Z" fill="black"/>
<path d="M486.898 369.331C491.903 369.1 497.987 369.234 503.074 369.213L502.942 385.46C497.868 385.28 492.059 385.409 486.927 385.403L486.898 369.331Z" fill="black"/>
<path d="M503.718 353.278C508.764 353.146 514.249 353.255 519.332 353.256L519.261 369.036C514.15 369.177 508.716 369.075 503.578 369.062L503.718 353.278Z" fill="black"/>
<path d="M567.161 288.354C570.846 288.26 575.006 288.481 578.726 288.592L578.596 300.593L566.718 300.586C566.706 297.913 566.452 290.505 567.161 288.354Z" fill="black"/>
<path d="M121.087 163.156C128.673 163.036 136.262 163.1 143.846 163.347L143.874 186.246L129.191 186.278C129.098 188.116 128.752 191.323 129.307 192.895L132.873 192.959C134.537 194.326 133.176 195.958 133.879 198.376C133.907 198.472 136.795 199.519 136.783 199.496C139.005 203.432 140.672 211.602 142.879 215.181L145.486 215.458C146.857 217.92 144.314 221.941 146.495 223.934C154.163 224.092 148.658 227.364 150.923 231.787L154.042 231.904C155.461 234.603 153.575 236.496 155.006 238.712C156.065 238.865 157.121 239.04 158.172 239.238C159.745 242.035 157.471 244.805 158.865 247.842L161.537 248.45C163.407 250.21 162.881 251.159 163.963 254.151L165.823 254.94C167.015 256.82 165.52 258.206 166.238 259.657C167.144 261.487 167.873 263.315 168.676 265.201L171.478 265.56C172.36 268.351 174.596 274.685 176.073 277.105L178.913 277.492C180.772 279.691 181.872 289.278 183.618 293.012L186.687 293.475C188.4 295.213 186.395 296.574 187.518 299.828C188.752 299.933 189.988 300.022 191.224 300.097C192.475 302.588 190.52 306.824 191.888 309.129C193.153 309.204 194.417 309.295 195.68 309.403C197.08 311.583 194.962 314.559 196.543 316.859C197.74 317.011 198.939 317.141 200.14 317.249C201.693 319.75 199.477 321.687 200.739 324.566C202.124 324.86 202.586 324.884 204.007 324.941C205.255 327.039 203.699 331.32 204.908 333.14L208.15 333.205C210.132 335.843 207.345 339.126 210.055 341.645L212.478 341.452C213.94 343.485 212.528 345.745 213.96 348.715C215.904 352.746 219.28 355.569 221.542 359.411C221.56 359.443 221.713 362.909 222.133 364.01C223.003 366.297 225.113 364.718 225.624 366.774C226.313 369.542 225.086 371.912 226.549 374.34L229.647 374.508C230.885 376.028 230.195 378.7 230.156 381.264C231.66 382.479 231.382 382.097 233.711 381.941C235.282 384.637 233.231 386.441 234.917 389.163C236.313 389.729 236.794 389.801 238.286 390.09C240.137 393.423 237.042 397.854 240.565 397.983C247.118 398.223 241.662 406.075 248.113 410.735C250.298 411.02 250.558 410.996 252.605 410.183C252.638 408.996 252.667 408.499 252.842 407.331L255.413 406.414C255.497 404.429 255.622 402.446 255.791 400.467C257.008 399.503 257.574 399.849 259.437 399.857C261.016 397.549 259.13 394.028 260.557 391.822L264.035 391.7C265.333 389.854 263.522 385.26 264.922 383.145L267.525 382.998C268.406 381.519 268.115 380.546 268.173 378.612C269.445 377.054 270.148 377.499 272.748 377.214C274.102 374.012 272.115 370.319 273.295 366.329C274.558 365.872 275.557 366.044 276.92 366.108C278.27 364.152 276.324 362.581 277.747 360.257L280.188 360.262C281.723 357.915 279.747 355.518 281.197 352.9C282.338 352.862 283.479 352.817 284.62 352.762C286.223 350.439 284.09 348.22 285.697 345.737C287.106 345.715 287.605 345.683 288.992 345.447C290.13 343.082 288.527 339.647 289.606 336.509C298.713 336.14 291.972 333.23 295.088 328.32C296.383 328.226 297.482 328.109 298.768 327.934C300.145 324.714 297.417 320.571 299.659 318.035L302.555 317.964C304.163 315.963 302.075 314.816 303.704 312.374L306.277 312.436C307.813 310.481 305.952 307.168 307.417 305.072C308.902 305.046 309.685 304.989 311.154 304.771C312.524 302.259 311.324 298.908 312.043 295.03C313.142 294.424 313.306 294.463 314.596 294.317L314.962 294.279C316.148 292.508 315.54 290.038 315.916 287.259C317.425 285.944 317.682 286.362 320.07 286.285C321.909 284.615 319.78 282.599 321.252 280.45L323.419 280.575C325.508 278.13 323.263 274.078 325.343 271.278L327.564 271.698C328.677 270.568 328.25 268.166 328.251 266.142C329.343 264.767 329.717 265.148 331.933 264.88C333.52 262.706 331.647 258.657 333.064 256.206L336.13 255.969C337.958 253.683 335.922 251.739 337.265 248.357C338.647 248.239 339.718 248.127 341.084 247.895C341.561 244.755 340.694 241.251 341.839 239.323L345.076 239.299C347.102 237.056 344.731 234.413 346.638 232.006L349.434 231.867C350.728 230.154 349.073 226.279 350.578 223.831L353.17 223.779C354.986 222.191 352.871 220.805 354.672 218.03C361.621 218.083 356.035 211.82 358.698 208.081L361.902 208.015C363.453 206.06 361.483 204.433 362.975 202.211L364.763 202.111C366.967 200.178 364.722 195.693 366.771 192.967C368.553 193.002 368.995 193.053 370.691 192.547C372.096 190.252 370.318 187.315 371.595 184.873L373.999 184.65C376.506 182.56 373.868 181.253 375.795 178.322C377.422 178.317 377.668 178.407 379.085 177.716C379.193 175.949 379.21 175.277 379.693 173.582C382.208 172.808 419.759 173.126 421.071 174.097L421.258 176.588C419.958 178.483 420.446 177.442 417.777 178.114C416.71 178.383 417.175 182.244 416.718 183.873C415.833 187.028 413.877 185.677 413.467 187.315C412.843 189.804 414.065 192.717 412.595 195.116C411.275 195.405 411.11 195.328 409.73 195.136L409.338 195.079C407.904 197.516 409.29 198.523 408.012 202.088C406.84 202.313 406.41 202.211 405.254 202.094C403.225 205.201 405.54 207.937 403.882 210.881C402.258 211.038 401.371 211.131 399.79 211.517C398.467 214.277 400.203 216.153 399.045 219.444C397.693 219.834 397.328 219.82 395.908 219.892C394.555 222.408 396.584 225.459 394.653 227.377L392.807 226.966C390.858 228.215 392.367 231.42 390.569 233.67L388.279 233.213C386.87 236.218 388.511 238.417 387.128 241.742C386.133 241.695 385.139 241.639 384.145 241.57C382.565 243.959 384.978 248.219 382.74 250.455L379.921 250.161C378.346 252.015 380.132 254.012 378.401 256.124L375.897 255.948C373.772 257.505 376.081 261.261 374.361 263.863L371.695 263.968C370.09 266.241 372.129 269.674 370.632 271.846L367.48 271.973C365.71 274.447 367.938 278.073 366.307 280.587L362.846 280.574C361.436 282.401 363.398 285.446 361.528 287.955L358.472 288.146C357.293 290.121 358.816 292.683 357.85 295.898L355.427 296.389C353.518 298.861 355.65 299.876 354.022 302.94L351.85 302.839C349.884 304.865 352.014 306.046 350.3 308.74L347.818 308.779C345.879 310.976 348.052 313.861 346.337 316.73L343.338 316.533C341.995 317.949 342.497 321.421 342.54 323.711L341.913 324.309L339.739 323.943C337.944 326.343 339.983 330 338.113 332.069L335.584 331.994C333.477 333.904 335.912 337.934 334.014 340.625L331.35 340.723C329.672 343.237 331.724 344.589 330.231 347.786C329.266 347.797 328.301 347.822 327.337 347.861C326.134 350.047 327.4 352.247 326.972 354.74C326.524 357.353 326.106 354.714 323.492 356.688C323.313 358.077 323.17 359.47 323.064 360.866C321.817 361.361 321.525 361.272 320.133 361.249L319.697 361.239C318.11 363.409 320.266 366.416 318.465 368.828C313.186 368.808 315.805 370.737 314.733 375.167C313.652 375.548 312.892 375.754 311.78 376.034C310.212 378.427 311.882 380.358 310.322 383.624L307.938 383.978C306.413 385.372 306.934 386.846 306.42 389.623C305.263 390.162 304.9 390.061 303.572 390.058L303.13 390.055C301.88 391.809 302.783 394.76 302.22 397.959C301.14 398.612 300.613 398.669 299.413 398.961C297.667 401.443 299.043 403.277 298.107 404.908C297.136 406.6 295.673 405.698 294.176 408.632L294.658 409.981C297.057 411.588 314.567 410.799 318.59 410.746C323.249 410.742 342.595 409.587 345.093 411.646C345.12 413.219 344.985 413.735 345.758 415.028L348.907 415.121C350.312 417.372 352.311 420.812 353.958 422.757L356.951 422.921C358.591 424.763 356.51 424.92 358.257 427.136C363.76 426.964 362.563 431.043 366.272 434.911C366.617 435.272 368.096 434.407 370.073 435.788C369.91 441.253 370.988 437.898 374.207 439.898L374.193 442.757C375.58 443.864 376.08 443.532 378.13 443.644C380.922 444.968 381.355 450.584 384.99 452.113C385.988 452.532 389.063 454.853 389.825 455.581C389.793 457.062 389.697 457.362 390.245 458.694L393.088 458.883C395.166 460.729 392.836 460.399 394.698 462.97L397.543 463.002C399.377 464.652 397.03 464.885 398.958 467.061C400.474 467.101 400.838 466.99 402.082 467.746L402.03 470.57C403.816 472.089 404.535 470.338 406.778 471.837L406.956 473.659L406.262 474.446C399.658 475.014 404.321 476.93 401.909 479.374L399.058 479.242C398.056 480.416 398.417 480.72 398.46 482.622C396.774 485.065 396.854 482.19 394.512 484.295C394.651 490.648 391.984 485.849 389.788 489.183C386.47 494.221 387.862 494.137 382.59 495.841C382.548 501.852 381.448 498.298 378.315 500.242L378.343 503.309C376.22 504.632 371.95 507.103 370.304 508.728L370.342 511.211C368.777 513.491 368.993 511.089 366.061 512.959L366.047 515.751C363.492 517.295 360.09 519.217 357.751 520.957L357.627 523.772C355.928 525.722 355.797 523.191 353.47 525.127C353.4 526.664 353.518 527.317 352.768 528.599C351.337 528.542 350.737 528.372 349.52 529.012L349.37 532.152C347.955 534.147 347.748 531.907 345.365 533.539L345.049 536.193C343.452 538.163 343.493 535.888 340.908 537.484L340.908 541.536C339.415 543.897 338.6 541.263 336.425 543.376C336.645 549.395 334.883 545.169 332.236 547.686L332.19 550.281C330.887 550.853 330.633 550.746 329.148 550.675L328.7 550.649C327.195 552.65 329.119 552.52 327.551 555.004L324.344 554.994C323.335 556.334 323.717 557.052 323.723 559.076L322.9 559.9L320.723 559.415C317.804 562.175 316.062 567.518 311.427 569.799C309.422 570.785 307.801 572.733 306.924 574.854L306.727 575.343C306.17 575.554 305.6 575.769 304.987 575.877C304.705 575.926 303.606 575.776 303.371 575.709L303.163 574.218C295.05 566.237 283.942 553.52 275.392 546.522C274.398 543.405 274.959 532.168 275.055 528.134L258.425 528.045C258.636 533.382 258.517 538.886 258.471 544.24C247.655 544.456 236.277 544.283 225.417 544.289C225.248 534.852 225.298 525.412 225.565 515.978L243.129 516.021L243.338 503.342C238.88 503.242 235.05 503.318 230.594 503.489L230.698 487.367C234.737 487.393 238.776 487.328 242.812 487.175C243.577 486.164 243.389 486.631 243.173 485.023C239.924 482.348 229.175 483.659 224.443 483.66L183.809 483.637C183.688 469.007 183.927 453.959 183.995 439.299L216.825 439.216C216.92 436.956 217.276 434.164 216.363 432.183C211.873 428.799 215.225 428.243 213.637 422.566C212.154 422.07 211.906 422.114 210.299 422.071L209.833 422.061C208.12 419.161 210.467 416.706 208.497 414.631L205.95 414.768C204.456 412.755 206.385 412.277 204.704 409.954L201.842 409.759C200.344 406.785 202.389 403.46 200.936 400.574L197.829 400.531C196.36 398.265 197.636 397.574 197.328 395.2C197.045 393.021 194.383 394.301 193.731 392.993C192.448 390.423 194.01 388.028 192.133 385.646C186.18 385.66 190.894 381.164 188.778 377.566L185.912 377.56C184.347 375.229 186.418 372.622 184.973 370.091C183.56 369.954 182.147 369.831 180.732 369.723C178.908 366.363 183.626 361.298 174.103 356.775C173.103 356.3 173.555 351.433 173.351 349.534C172.185 348.373 171.807 348.766 169.721 348.741C168.002 346.316 170.266 343.652 168.395 340.725L165.942 340.687C163.807 338.228 166.433 335.517 164.45 332.907L161.67 332.702C159.461 330.387 162.487 327.435 160.342 324.74L157.482 324.604C155.798 321.672 158.061 320.055 156.361 317.199C150.738 316.564 155.04 314.697 152.806 310.551C146.632 308.004 151.139 307.59 148.725 303.405L146.582 302.935C144.539 300.892 147 299.93 145.266 297.001L142.25 296.604C140.913 294.001 142.861 290.422 141.308 288.036L138.084 287.607C136.523 285.33 138.421 284.315 137.342 280.708C135.823 280.198 134.991 280.188 133.411 280.042C131.865 277.694 133.937 275.564 132.498 272.414C126.447 271.68 130.118 267.121 128.05 264.17L125.33 264.032C123.123 261.835 125.648 259.112 123.766 256.39L120.592 256.147C119.463 254.353 120.945 253.681 120 250.546C118.804 250.037 118.673 250.019 117.362 249.838L117.03 249.795C116.237 246.48 117.601 245.077 116.308 243.07L113.239 242.845C111.555 239.911 113.487 238.95 112.191 235.622L109.365 235.273C108.148 233.874 108.703 230.679 108.693 228.271C106.664 225.957 107.46 228.337 104.713 226.734C104.48 225.062 104.692 223.778 104.85 222.106L104.057 221.177L100.752 220.962C98.9341 217.928 102.157 214.356 98.7584 211.731C96.9959 211.958 97.2166 212.302 95.7934 213.945C93.6047 214.87 88.1903 214.481 85.5566 214.437C85.5216 210.093 85.3047 204.058 85.8659 199.919C88.9441 197.992 88.6616 200.301 91.2684 198.605C91.5616 196.987 91.5391 196.794 90.9922 195.243C89.6716 195.01 88.8866 194.923 87.5491 194.828C86.0416 192.262 88.1934 189.38 86.6409 186.615L83.4766 186.272C82.0766 183.944 83.9916 180.267 82.5559 178.08L79.3753 177.955L78.5859 176.965C78.7159 174.724 78.4309 175.593 79.7434 173.685C82.1116 172.767 116.052 173.347 121.013 173.386L121.087 163.156Z" fill="black"/>
<path d="M1003.01 173.342C1056.83 172.053 1111.46 174.5 1165.33 173.198C1167.74 173.14 1173.56 172.951 1175.42 174.245C1175.44 175.756 1175.44 176.364 1175.7 177.847C1178.54 178.903 1181.56 177.165 1184.45 178.417C1184.5 179.748 1184.55 180.57 1184.73 181.89C1187.1 183.081 1189.74 181.82 1192.19 182.345C1194.29 182.794 1192.15 183.756 1193.73 186.185L1196.64 186.305C1198.87 188.11 1196.37 187.409 1198.5 190.789C1202.56 192.269 1203.21 194.937 1205.05 198.855C1206.24 199.069 1207.24 199.209 1208.45 199.343C1209.11 201.599 1208.9 212.519 1208.92 215.44L1216.58 215.315C1216.61 217.948 1217.1 227.955 1216.17 229.744L1213.54 230.106C1212.68 232.032 1213.03 241.787 1213.05 244.439L1229.07 244.368L1229.05 259.157L1213.09 259.096C1213.02 264.528 1213.87 280.074 1212.6 284.132C1211.35 284.183 1210.91 284.111 1209.65 283.935C1208.2 286.08 1209.74 294.156 1208.99 296.912C1208 300.587 1200.57 301.647 1200.07 306.306C1199.74 306.895 1200.25 308.637 1200.96 308.636C1206.86 308.625 1211.07 314.662 1215.74 317.699C1216.3 318.063 1215.39 323.278 1216.77 324.93C1218.24 324.897 1218.55 324.804 1219.88 325.329C1221.39 328.482 1220.14 332.875 1220.39 336.218C1220.57 338.483 1222.5 336.341 1224.39 338.086C1224.82 344.451 1224.93 412.831 1223.88 414.359L1221.14 414.258C1219.5 416.721 1221.86 423.546 1219.92 426.447L1217.63 426.452C1215.67 427.724 1215.87 433.473 1213.92 436.232C1210.85 440.562 1211.73 437.447 1208.54 439.214C1208.49 440.253 1208.42 441.291 1208.35 442.328C1205.87 444.023 1204.07 441.949 1200.86 443.197C1200.77 444.744 1200.82 445.088 1200.24 446.489C1198.71 446.587 1197.97 446.644 1196.49 446.973C1196.46 448.556 1196.53 448.793 1195.94 450.221C1193.62 450.905 1188.1 450.452 1185.44 450.349C1184.99 451.271 1184.41 452.467 1183.67 453.182C1182.94 453.892 1181.99 454.349 1180.98 454.489C1179.39 454.711 1171.81 454.466 1169.62 454.462L1140.66 454.393L1140.6 469.059C1137.2 468.721 1130.11 468.88 1126.44 468.858C1126.42 465.675 1126.55 462.361 1126.62 459.168C1121.4 459.078 1114 459.916 1108.85 458.905C1107.52 458.643 1108.83 457.079 1107.79 454.673C1101.9 453.946 1087.15 454.508 1080.1 454.37C1080.46 459.991 1080.47 463.511 1080.14 469.098L1065.77 469.043C1065.62 464.29 1065.75 459.228 1065.8 454.447C1058.71 454.342 1005.1 455.023 1002.6 453.789L1002.48 450.792C1000.5 449.655 994.941 450.973 992.348 450.421C989.398 449.793 991.916 449.347 990.06 446.743L986.86 446.63C986.31 445.653 986.466 445.099 986.523 443.965L986.554 443.518C983.448 441.611 981.504 443.939 978.391 442.206C978.566 440.891 978.704 440.58 978.191 439.329L974.516 438.544C974.404 437.321 974.323 436.095 974.279 434.868C973.029 434.049 972.648 434.373 970.916 434.458C968.704 432.627 971.298 429.137 969.36 426.623L966.61 426.586C965.36 424.52 967.479 417.398 965.654 414.713C964.079 414.704 963.523 414.835 962.166 414.151C961.398 410.516 961.873 398.833 961.954 394.39C973.86 394.216 986.173 394.397 998.104 394.418C998.11 398.012 997.329 408.129 998.641 410.789C1000.22 410.844 1000.59 410.749 1001.95 411.438L1001.94 413.668C1003.19 414.815 1006.83 414.507 1008.96 414.581C1010.4 415.86 1009.95 415.329 1010.16 417.856C1012.11 419.484 1038.86 418.712 1043.05 418.711L1043 398.138L1060.73 398.113H1061.1C1062.82 398.129 1065.37 397.887 1066.34 398.868C1066.99 403.856 1066.65 413.364 1066.62 418.71L1079.9 418.704L1079.99 410.391C1088.79 410.129 1098.64 410.371 1107.52 410.406V418.722C1110.11 418.757 1116.68 419.132 1118.74 418.26C1119.08 416.478 1119.19 416.29 1120.37 414.918C1122.91 414.034 1132.41 414.166 1135.5 414.308C1138.34 414.437 1139.49 416.017 1141.14 418.09C1143.1 418.653 1142.32 418.679 1144.15 418.146C1144.27 416.458 1144.13 415.955 1145.17 414.751C1147.02 414.102 1148.81 413.894 1150.77 414.606C1151.94 415.034 1151.67 416.579 1152.17 418.343C1153.84 418.923 1154.14 419.093 1155.8 418.569C1156.84 417.295 1156.83 416.818 1157.17 415.226L1157.29 414.702L1158.67 414.446L1159.6 415.188C1159.69 416.498 1159.57 417.571 1160.42 418.489C1163.53 418.961 1173.27 418.934 1176.25 418.237C1176.48 417.091 1176.65 416.045 1176.82 414.89C1178.31 413.995 1182.95 414.292 1184.98 414.292C1184.97 413.573 1184.95 412.852 1184.95 412.132C1184.95 408.198 1185.02 408.545 1187.99 405.571C1189.19 401.515 1189.04 382.505 1188.29 377.85C1187.08 377.45 1186.6 377.38 1185.33 377.186L1185.02 375.819C1185.89 373.22 1185.42 374.71 1188.41 372.749C1189.37 363.719 1188.9 349.607 1188.43 340.263C1188.26 336.79 1183.94 333.926 1181.18 331.752C1181.23 330.311 1181.2 330.342 1180.8 328.941C1176.9 328.133 1143.42 328.501 1137.72 328.505L1026.5 328.568C1027.09 317.578 1026.52 303.972 1026.88 292.434L1050.17 292.391C1050.33 295.334 1050.21 297.679 1050.07 300.63L1059.05 300.591L1059.17 292.396C1069.16 292.424 1162.71 293.05 1164.91 291.726L1165.04 288.644C1166.29 287.798 1170.04 288.101 1171.89 288.089C1173.67 286.5 1171.62 286.88 1173.06 284.282L1175.59 284.255C1179.41 281.233 1174.34 237.401 1177.47 231.764C1178.74 231.58 1179.32 231.478 1180.55 231.129C1180.79 228.774 1180.92 221.954 1180.24 219.54C1180.11 219.077 1177.88 219.089 1176.45 218.606C1176.5 216.982 1176.6 216.715 1176.07 215.217C1174.81 214.904 1173.93 214.669 1172.7 214.246L1172.33 211.995C1168.29 209.534 1166.23 211.774 1163.65 214.573C1162 214.689 1161.92 214.739 1160.55 213.941C1161.09 212.162 1163.28 210.747 1164.9 209.35C1164.95 207.596 1165.19 208.162 1164.24 207.001C1154.74 206.393 1012.19 206.516 1010.76 207.256C1010.65 208.487 1010.54 209.247 1010.3 210.461C1007.92 211.951 1006.44 210.305 1003.12 211.241C1002.41 212.561 1002.48 212.803 1002.38 214.363L1002.35 214.822C1001.05 215.11 1000.3 215.176 998.973 215.296C997.998 217.525 998.248 228.89 998.216 231.889L962.454 231.865C962.385 228.694 961.673 217.317 963.116 215.503L965.848 215.427C968.31 212.641 965.31 203.544 966.629 199.858C967.373 197.786 969.229 199.446 969.585 198.927C971.354 196.373 972.716 193.275 974.96 191.106C975.291 190.808 976.273 191.726 978.048 190.689C978.241 189.007 978.185 188.282 979.098 186.878C980.616 186.613 981.566 186.627 982.66 185.613L982.485 183.39C984.066 180.87 988.423 183.573 990.991 181.847L991.104 178.761C994.129 176.154 997.685 179.265 1001.54 177.912C1003.26 176.069 1002.74 176.407 1003.01 173.342ZM1074.52 325.165C1078.84 325.152 1083.47 325.057 1087.77 325.172L1087.92 312.537L1074.64 312.549C1074.62 316.629 1074.69 321.128 1074.52 325.165ZM1099.91 430.558L1100.01 418.425C1096.3 418.412 1091.23 418.538 1087.64 418.334L1087.67 430.422L1099.91 430.558ZM1192.02 223.627L1201.16 223.653L1201.3 215.057L1192.07 215.033L1192.02 223.627ZM1146.37 426.114C1146.69 428.603 1146.3 429.114 1147.76 430.658C1149.36 430.786 1150.5 430.868 1152.1 430.822C1151.83 427.993 1152.32 427.886 1150.74 426.287L1146.37 426.114ZM1131.34 434.903C1131.4 432.522 1131.82 429.302 1130.57 427.486C1128.65 426.537 1126.65 426.802 1124.44 426.822C1124.34 429.156 1123.89 432.385 1125 434.25C1126.73 435.371 1129.2 434.987 1131.34 434.903ZM1200.63 259.958L1208.04 259.901L1208.17 251.752C1205.55 251.512 1203.35 251.282 1200.72 251.322C1200.75 254.244 1200.79 257.03 1200.63 259.958ZM1109.35 442.903C1109.2 445.212 1108.68 448.298 1109.69 450.222C1111.89 451.398 1113.42 450.962 1116.22 450.895C1116.27 448.526 1116.69 445.249 1115.4 443.488C1113.58 442.589 1111.42 442.85 1109.35 442.903Z" fill="black"/>
<path d="M710.975 119.869L728.669 119.896L728.7 137.847C723.294 137.551 716.106 137.841 710.569 137.912L710.663 156.241C714.869 155.631 724.2 155.785 728.888 155.723C727.969 168.414 728.675 191.377 728.681 204.641L728.663 298.719L728.644 373.46C728.644 381.838 728.088 402.407 728.888 410.121C730.231 410.328 731.388 410.448 732.744 410.569C734.288 413.157 735.881 415.721 737.506 418.259C741.613 419.111 770.95 418.66 776.988 418.638L776.881 451.21L786.044 451.135C785.9 441.871 786.094 432.079 786.137 422.776C788.612 422.701 791.087 422.659 793.562 422.651C796.025 424.594 793.163 424.195 795.381 426.78C796.981 426.693 797.475 426.502 798.75 427.311L798.869 430.153C799.75 431.497 805.063 434.144 806.988 435.506C806.894 441.122 811.437 440.054 815.438 444.052C815.737 444.35 814.8 445.663 815.85 447.415L818.731 447.586C820.769 449.457 818.494 448.669 820.331 451.613C821.681 451.461 822.381 451.222 823.55 451.883L823.863 454.585C825.938 456.632 825.931 454.374 828.113 456.024C827.744 461.805 832.463 460.021 836.231 464.359C836.544 464.719 835.506 465.59 836.656 467.628C843.288 467.717 842.3 473.543 844.688 475.378L856.444 484.574C856.55 486.559 856.869 486.344 855.994 487.676C850.9 488.027 854.6 489.014 852.175 491.69C846.856 491.491 850.206 492.504 848.388 495.592C842.269 496.211 845.881 498.13 844.656 499.588C843.881 500.514 837.363 503.37 836.363 504.983C836.106 505.407 836.931 506.461 835.788 508.103L833.481 508.037C831.187 509.493 833.581 510.502 831.531 512.312C831.513 512.324 829.469 512.344 829.425 512.362C827.069 513.389 829.344 514.537 827.594 516.24C827.431 516.395 825.494 516.092 824.894 516.679C822.588 518.928 821.394 522.027 819.025 524.394C813 525.102 817.363 526.419 814.663 528.805L811.744 528.62C810.081 530.079 811.188 533.461 810.338 533.988C805.494 536.983 803.063 534.957 802.894 541.105C800.231 544.867 794.156 548.094 790.975 551.659C789.838 551.906 790.331 556.54 789.213 556.343C784.338 555.481 784.163 561.833 780.863 564.153C780.3 564.548 778.838 563.567 777.106 565.052C777.138 570.14 772.938 569.8 769.169 573.145L769.175 575.406C767.225 577.93 767.2 575.448 764.744 577.542C764.444 582.601 763.8 579.123 760.756 581.193L760.613 584.248C758.5 586.121 760.006 584.918 757.094 585.51L755.994 588.584L754.894 588.923C751.763 588.278 749.981 585.736 748.506 583.091C746.663 579.776 746.594 581.965 743.712 580.282L743.75 577.391C742.344 575.65 741.187 577.284 739.419 575.835L739.444 573.299C737.919 571.256 738.206 573.384 735.663 571.808L735.681 569.547C734.225 567.381 733.775 569.662 731.294 568.037L731.238 565.476C729.788 563.385 727.081 564.538 726.762 563.935C722.475 555.805 721.594 556.124 714.494 551.379C714.931 545.269 711.669 549.057 708.1 545.654C707.731 545.302 707.669 541.261 707.625 540.372L707.481 487.137C699.938 486.873 691.056 487.077 683.406 487.065C683.581 479.317 683.525 471.239 683.575 463.463C691.338 463.324 699.463 463.44 707.25 463.434L707.138 487.137L725.494 487.202C725.588 493.005 725.544 498.927 725.563 504.741C731.394 504.487 737.706 504.521 743.575 504.445L743.406 521.898L761.894 521.804L761.938 504.183L743.819 504.227L743.869 486.921C737.912 486.898 731.963 486.972 726.013 487.145C725.613 480.124 726.569 454.858 725.15 451.035C723.869 450.833 723.587 450.796 722.387 450.332L722.331 447.5C720.344 446.291 718.544 446.719 715.938 446.709C714.206 445.624 714.781 446.246 713.95 443.976C712.606 443.274 711.556 442.756 710.163 442.163C710.006 436.405 706.75 438.076 702.019 434.39C700.95 433.56 702.119 429.882 700.325 427.195C693.813 425.22 699.606 418.329 696.388 414.066C694.894 413.901 694.563 413.939 693.231 413.305C692.65 402.851 692.963 390.23 692.969 379.626L692.975 322.402L692.9 137.991C698.9 138.029 704.9 138.005 710.906 137.921C711.069 132.058 710.963 125.767 710.975 119.869Z" fill="black"/>
<path d="M905.566 300.767L921.516 300.747C921.691 304.675 921.591 308.852 921.573 312.802L936.404 312.923C936.429 318.343 936.391 323.762 936.291 329.181C931.429 329.213 926.573 329.12 921.716 328.904C921.716 336.737 921.904 345.338 921.36 353.096C887.566 353.5 852.979 353.168 819.141 353.1L818.916 364.943L818.66 365.279C815.229 365.785 807.072 365.547 803.254 365.527L803.348 353.266C798.785 353.103 793.741 353.177 789.141 353.146C789.06 347.985 789.204 342.7 789.285 337.529L803.598 337.405L803.523 312.852C813.435 312.182 829.366 312.649 839.748 312.646C861.673 312.586 883.598 312.637 905.523 312.8L905.566 300.767ZM918.016 349.15C917.772 346.668 918.21 346.448 916.71 345.109L912.823 345.023C913.01 347.507 912.598 347.795 913.96 349.427C915.873 349.685 916.135 349.628 918.016 349.15Z" fill="black"/>
<path d="M186.828 491.976C196.377 491.819 206.116 491.874 215.682 491.828L215.638 520.047C206.377 519.854 196.223 520.102 186.891 520.137L186.828 491.976Z" fill="black"/>
<path d="M665.008 503.702C673.058 503.646 681.108 503.671 689.158 503.776C689.027 511.707 688.995 519.64 689.064 527.572C683.002 528.106 671.508 527.824 664.977 527.821L665.008 503.702Z" fill="black"/>
<path d="M1080.63 469.349L1095.26 469.367C1095.36 479.309 1095.29 489.253 1095.03 499.193C1091.28 499.442 1084.62 499.235 1080.63 499.245C1080.68 489.28 1080.68 479.314 1080.63 469.349Z" fill="black"/>
<path d="M111.54 131.824L129.335 131.807L129.294 150.008L111.398 149.973L111.54 131.824Z" fill="black"/>
<path d="M93.09 150.228C98.6981 149.979 105.477 150.139 111.175 150.122L111.093 168.382C105.283 168.579 98.7912 168.676 93.0469 168.189L93.09 150.228Z" fill="black"/>
<path d="M692.919 101.689L710.562 101.618C710.6 107.693 710.556 113.767 710.419 119.84C707.294 119.179 696.613 119.472 692.844 119.496L692.919 101.689Z" fill="black"/>
<path d="M729.197 101.68L746.459 101.597C746.484 107.071 746.709 114.148 746.216 119.47C740.603 119.637 734.653 119.57 729.016 119.6L729.197 101.68Z" fill="black"/>
<path d="M728.984 138.014C734.416 138.015 739.984 137.947 745.397 138.024L746.347 138.744C746.741 143.929 746.453 150.309 746.347 155.607L728.891 155.723C729.203 150.523 729.153 143.348 728.984 138.014Z" fill="black"/>
<path d="M161.789 455.359L178.037 455.423L178.033 471.665L161.877 471.801C162.007 466.036 162.013 461.116 161.789 455.359Z" fill="black"/>
<path d="M161.878 471.801C161.47 475.331 161.6 484.155 161.547 488.08L145.917 488.09C146.01 482.881 145.875 477.259 145.852 472.015C151.298 472.054 156.437 472.114 161.878 471.801Z" fill="black"/>
<path d="M145.859 439.275L161.619 439.307C161.627 441.619 161.498 453.942 161.791 455.359C157.9 454.71 150.134 454.963 145.895 454.997L145.859 439.275Z" fill="black"/>
<path d="M651.98 227.428C656.93 227.344 662.117 227.434 667.086 227.443L667.08 242.814C662.186 242.988 656.805 242.931 651.867 242.983L651.98 227.428Z" fill="black"/>
<path d="M1050.83 469.333C1055.58 469.222 1060.75 469.345 1065.53 469.366V483.535L1050.78 483.579C1051.03 479.326 1050.86 473.695 1050.83 469.333Z" fill="black"/>
<path d="M1141.14 469.287C1145.86 469.248 1150.69 469.329 1155.42 469.355C1155.21 473.965 1155.18 478.928 1155.07 483.572L1141.03 483.612L1141.14 469.287Z" fill="black"/>
<path d="M1229.75 230.07L1243.48 230.097C1243.26 234.613 1243.29 239.717 1243.21 244.285L1229.68 244.249C1229.56 239.739 1229.71 234.629 1229.75 230.07Z" fill="black"/>
<path d="M1229.96 201.663L1243.49 201.81C1243.22 205.732 1243.32 211.496 1243.28 215.559C1240.36 215.841 1233.18 215.639 1229.95 215.637L1229.96 201.663Z" fill="black"/>
<path d="M61.8047 139.41L71.2886 139.515L71.1848 149.541L61.8072 149.56L61.8047 139.41Z" fill="black"/>
<path d="M151.041 133.514L159.047 133.547L158.864 141.651L150.875 141.612L151.041 133.514Z" fill="black"/>
<path d="M126.081 475.598L133.517 475.556L133.359 483.376C131.302 483.98 128.576 483.964 126.715 482.885C125.573 480.915 125.985 477.966 126.081 475.598Z" fill="black"/>
<path d="M651.943 252.142C654.424 252.109 657.049 251.534 658.893 252.846C659.943 254.697 659.549 257.691 659.468 259.955C657.274 260.009 654.399 260.358 652.63 259.338C651.474 257.644 651.874 254.321 651.943 252.142Z" fill="black"/>
<path d="M105.258 443.317L112.508 443.429L112.447 451.044L105.333 451.097L105.258 443.317Z" fill="black"/>
<path d="M1124.24 496.153C1126.44 496.09 1129.35 495.691 1131.02 496.832C1132.07 498.705 1131.66 501.314 1131.55 503.577C1129.26 503.674 1126.58 504.105 1124.78 502.931C1123.76 501.11 1124.15 498.362 1124.24 496.153Z" fill="black"/>
<path d="M599.478 207.387C601.633 207.285 604.178 206.904 606.016 207.893C607.258 210.292 606.768 211.859 606.706 214.803C604.54 214.872 601.935 215.222 600.132 214.277C598.931 212.457 599.375 209.714 599.478 207.387Z" fill="black"/>
<path d="M1160.97 235.147L1163.47 235.702C1165.34 238.371 1164.68 240.959 1164.52 244.485C1163.05 244.16 1162.2 244.153 1161.17 243.164C1160.07 240.953 1160.71 237.713 1160.97 235.147Z" fill="black"/>
</svg>
