<svg width="510" height="2700" viewBox="0 0 510 2700" fill="none" xmlns="http://www.w3.org/2000/svg">
<path d="M302.017 2624C297.896 2596.38 299.498 2569.09 306.761 2542.13C307.366 2539.89 307.821 2537.6 309.309 2534.53C310.296 2532.52 310.319 2531.33 310.343 2530.14C316.456 2508.19 322.335 2486.18 328.741 2464.33C336.753 2436.99 341.651 2409.06 345.609 2380.92C346.892 2371.8 348.169 2362.68 350.224 2352.18C351.702 2344.44 353.84 2337.97 349.607 2331.97C344.305 2321.69 339.31 2311.23 333.64 2301.16C319.337 2275.74 297.768 2257.92 272.566 2244.15C263.569 2239.23 254.291 2234.83 244.323 2229.16C240.995 2224.4 237.272 2223.87 233.209 2224.24C210.479 2214.9 187.749 2205.56 164.267 2195.17C162.055 2193.5 160.595 2192.89 159.136 2192.27C159.136 2192.27 158.357 2192.3 158.208 2191.38C158.857 2189.55 159.655 2188.65 160.453 2187.74C177.141 2191.81 193.121 2197.61 208.409 2205.6C219.231 2211.26 230.641 2215.81 241.864 2220.68C269.027 2232.47 294.391 2247.18 316.786 2266.69C330.234 2278.41 340.033 2292.86 347.707 2310.24C348.6 2312.76 349.407 2313.93 350.213 2315.1C350.295 2313.47 350.377 2311.83 350.459 2310.2C349.037 2286.02 347.616 2261.85 346.668 2236.34C346.743 2233.35 346.345 2231.69 345.946 2230.03C343.992 2221.18 342.037 2212.33 340.537 2202.19C339.496 2196.6 342.09 2190.91 336.581 2187.98C331.991 2167.97 326.723 2148.08 322.989 2127.9C318.659 2104.51 315.925 2080.82 312.031 2057.33C308.784 2037.75 304.74 2018.31 301.272 1998.76C296.706 1973.03 292.364 1947.26 287.918 1921.52C284.258 1900.32 280.346 1879.17 276.989 1857.92C273.738 1837.34 271.216 1816.65 268.05 1796.05C266.393 1785.27 264.219 1774.56 261.965 1763.88C257.997 1745.09 253.787 1726.35 249.782 1706.57C249.885 1705.56 249.756 1704.75 249.756 1704.75C245.127 1691.67 240.901 1678.43 235.736 1665.57C231.912 1656.05 227.319 1646.75 222.209 1637.85C218.788 1631.89 214.121 1626.57 209.564 1621.35C186.733 1595.22 159.704 1573.61 133.599 1550.99C122.172 1541.08 114.396 1528.09 106.768 1515.26C92.0004 1490.43 78.3106 1464.94 59.8965 1442.44C57.1777 1439.12 54.8544 1435.37 52.9319 1431.52C40.0226 1405.7 26.7772 1380.02 14.6728 1353.82C8.43262 1340.31 4.31311 1325.83 0 1310.94C1.83063 1310.05 2.89661 1310 3.96265 1309.96C20.674 1344.62 37.3534 1379.29 54.1359 1413.92C56.3013 1418.39 58.5138 1422.97 61.53 1426.87C82.1704 1453.5 98.2493 1482.98 115.159 1511.95C126.512 1531.39 140.639 1548.29 158.602 1562.1C173.33 1573.42 187.517 1585.46 201.724 1597.44C205.496 1600.62 208.46 1604.77 212.271 1609.32C213.231 1610.65 213.717 1611.14 214.202 1611.62C214.7 1610.19 215.793 1608.68 215.609 1607.34C212.113 1581.95 211.794 1556.43 211.278 1530.86C210.763 1505.28 214.868 1480.74 222.483 1456.43C229.656 1433.54 238.3 1411.37 251.616 1390.19C254.496 1390.07 255.806 1390.2 257.115 1390.33C247.299 1414.61 237.432 1438.87 227.687 1463.18C222.576 1475.93 219.715 1489.21 219.737 1502.97C219.769 1523.62 219.559 1544.29 220.409 1564.91C220.981 1578.78 223.194 1592.59 224.71 1606.43C224.853 1607.74 225.625 1609.05 225.496 1610.3C224.092 1623.91 229.791 1635.23 235.827 1646.91C251.74 1677.72 264.006 1709.92 269.772 1745.96C269.863 1750.37 269.856 1753.18 269.838 1756.72C270.268 1759.33 270.709 1761.22 271.15 1763.11C271.664 1763.09 272.179 1763.08 272.694 1763.06C273.083 1761.39 273.472 1759.71 273.856 1757.16C273.664 1752.79 273.478 1749.3 273.292 1745.8C273.601 1742.49 274.195 1739.18 274.175 1735.87C273.945 1698.92 279.354 1662.5 284.578 1626.08C288.529 1598.53 292.927 1571.04 297.642 1543.61C301.521 1521.04 306.193 1498.62 310.449 1476.12C316.05 1446.51 322.298 1417 326.939 1387.24C330.965 1361.42 333.078 1335.3 336.159 1309.32C337.758 1295.84 339.38 1282.36 341.454 1268.95C342.757 1260.52 339.292 1254.15 334.156 1248.22C333.086 1246.98 331.701 1245.94 330.294 1245.09C316.664 1236.79 311.423 1223.94 308.6 1208.81C304.43 1186.47 305.46 1165.41 317.134 1145.26C324.758 1132.09 331.373 1118.35 338.673 1104.42C328.238 1097.52 323.348 1087.26 318.595 1077.08C302.434 1042.49 286.719 1007.68 270.501 973.108C261.058 952.981 250.817 933.231 241.226 913.171C226.388 882.136 216.67 849.369 210.652 815.633C209.075 806.791 211.509 797.193 212.483 787.983C212.625 786.637 214.902 785.517 217.625 782.93C217.625 791.364 217.625 797.823 217.129 805.661C217.047 810.502 217.461 813.961 217.875 817.42C219.471 824.147 220.989 830.894 222.676 837.598C230.897 870.271 243.939 900.99 259.028 931.074C280.587 974.058 301.025 1017.6 321.949 1060.91C326.13 1069.56 330.219 1078.26 334.606 1086.81C336.055 1089.63 338.304 1092.04 340.597 1095.21C344.96 1089.41 346.429 1083.77 346.086 1077.75C345.368 1065.17 344.724 1052.57 343.395 1040.04C341.267 1019.98 339.059 999.917 336.065 979.978C331.544 949.866 326.663 919.797 321.302 889.824C314.484 851.7 306.624 813.761 299.996 775.607C295.242 748.237 291.813 720.637 287.715 693.152C283.054 661.89 281.163 630.44 282.188 598.882C283.415 561.144 277.674 524.235 270.826 487.331C267.424 469.001 262.848 451.193 256.068 433.798C246.328 408.812 229.439 389.639 208.804 373.42C193.145 361.113 177.054 349.354 161.117 337.402C142.88 323.725 128.131 306.638 114.294 288.787C104.951 276.735 96.533 263.966 88.2257 250.788C90.3081 250.05 91.8661 250.041 93.4241 250.033C100.998 260.118 108.23 270.483 116.212 280.234C136.256 304.723 157.719 327.746 185.108 344.428C188.645 346.582 191.312 350.119 194.672 352.628C196.252 353.808 198.52 354.069 202.891 355.583C198.483 347.469 195.295 341.445 191.965 335.501C181.421 316.682 170.526 298.03 165.009 276.899C164.173 273.697 162.864 270.552 162.535 267.303C162.201 264.007 162.811 260.616 164.882 257.205C169.91 269.736 174.743 282.35 180.002 294.783C192.793 325.017 210.794 352.166 231.873 377.036C250.362 398.851 264.719 422.689 274.83 449.312C278.312 458.481 282.519 467.375 288.328 476.204C289.364 468.864 290.461 461.532 291.424 454.182C295.207 425.305 298.224 396.305 302.865 367.567C310.777 318.565 319.73 269.732 328.188 220.817C333.879 187.903 339.925 155.041 344.935 122.023C348.008 101.765 349.38 81.2505 351.611 60.8618C352.293 54.6295 353.859 48.4475 354.03 42.2153C354.398 28.7729 354.124 15.3129 353.979 0.930053C357.93 1.01328e-06 362.013 1e-06 366.971 0C367.254 1.75786 366.086 3.53941 366.158 5.26999C367.145 29.2614 363.997 52.8824 360.399 76.5105C356.067 104.953 352.405 133.498 348.049 161.936C344.093 187.768 339.938 213.58 335.252 239.289C328.791 274.738 321.129 309.977 315.153 345.503C310.385 373.848 307.251 402.473 303.622 431.003C301.701 446.098 299.801 461.224 298.753 476.395C297.746 490.979 297.851 505.639 296.954 521.85C296.082 530.335 294.182 537.335 297.776 543.978C298.381 554.081 298.986 564.184 299.105 575.675C297.522 580.193 297.164 583.026 301.404 584.019C302.283 585.954 303.161 587.889 305.381 592.779C306.645 589.859 307.246 588.47 308.803 586.468C309.917 584.604 310.074 583.355 310.231 582.107C314.538 565.783 318.319 549.299 323.265 533.172C332.453 503.212 349.15 477.394 368.246 452.804C388.209 427.099 409.379 402.286 426.276 374.247C436.961 356.514 446.093 338.102 453.184 318.748C458.541 304.127 462.678 289.059 467.331 274.181C468.179 271.471 467.803 267.974 472.631 267.407C475.942 273.887 474.742 280.89 472.849 287.224C463.701 317.827 451.313 347.016 435.545 374.936C421.389 400.003 403.437 422.101 385.928 444.684C368.435 467.246 351.552 490.306 338.615 515.951C330.459 532.12 326.586 549.638 321.985 566.952C320.03 574.307 318.587 582.074 315.093 588.694C303.843 610.007 304.624 631.905 309.433 654.518C311.969 666.442 313.405 678.613 315.027 690.714C318.148 714.003 321.203 737.303 323.998 760.633C327.3 788.195 330.322 815.791 333.417 843.377C335.631 863.115 337.034 882.976 340.117 902.574C344.228 928.706 349.614 954.638 354.46 980.654C355.551 986.509 356.674 992.359 357.884 999.723C358.72 1003.59 359.455 1005.94 360.19 1008.3C360.725 1008.22 361.259 1008.14 361.793 1008.07C361.793 1005.37 361.793 1002.67 361.793 999.977C362.087 977.048 364.75 954.407 371.751 932.533C384.786 891.807 402.92 853.606 429.923 820.1C436.148 812.377 443.211 805.329 451.145 798.244C452.96 799.859 453.518 801.202 454.076 802.545C446.7 811.919 439.388 821.346 431.932 830.657C415.795 850.811 404.7 873.819 394.07 897.104C392.701 900.103 391.056 902.976 388.682 906.491C387.74 907.456 387.77 907.827 387.916 908.189C386.276 914.841 384.874 921.563 382.956 928.134C373.979 958.884 369.867 990.312 369.587 1022.28C369.468 1035.81 369.271 1049.34 369.627 1062.86C369.938 1074.64 373.26 1086.25 373.612 1097.86C373.871 1106.43 376.779 1113.96 378.685 1121.73C381.258 1132.22 385.735 1142.44 390.695 1152.11C398.605 1167.53 402.408 1184.02 403.286 1200.88C404.377 1221.82 388.831 1237.33 373.957 1240.89C364.595 1243.13 356.353 1239.74 348.17 1235.95C345.773 1234.84 343.394 1233.69 339.876 1234.14C340.324 1235.22 340.615 1236.4 341.244 1237.36C344.477 1242.31 348.287 1246.94 350.983 1252.16C356.562 1262.95 358.676 1274.43 358.397 1286.78C357.742 1315.71 353.683 1344.24 349.136 1372.68C343.135 1410.22 336.231 1447.62 329.508 1485.05C321.482 1529.73 313.104 1574.35 305.172 1619.04C302.979 1631.4 301.827 1643.95 299.577 1657.49C299.14 1659.69 299.325 1660.79 299.509 1661.9C298.422 1680.41 297.005 1698.91 296.376 1717.43C296.016 1728.01 296.943 1738.63 297.286 1749.24C297.383 1752.23 297.542 1755.21 297.544 1758.2C297.566 1786.17 296.927 1814.15 297.767 1842.08C298.403 1863.25 300.262 1884.43 302.757 1905.46C305.954 1932.41 309.953 1959.27 314.341 1986.05C317.23 2003.68 321.298 2021.12 325.068 2038.59C327.095 2047.99 329.607 2057.29 331.836 2068.09C332.569 2070.75 333.367 2071.96 334.164 2073.17C334.8 2071.76 335.436 2070.35 336.072 2068.94C342.493 2047.11 355.518 2029.47 370.371 2012.65C384.171 1997.03 397.434 1980.84 409.829 1964.08C427.892 1939.66 436.436 1910.95 443.847 1881.99C448.849 1862.43 453.179 1842.7 457.852 1823.07C458.309 1821.14 459.06 1819.29 460.685 1816.51C464.242 1810.04 467.602 1804.66 466.056 1798.07C469.359 1788.42 472.313 1778.64 476.147 1769.21C477.55 1765.76 481.039 1763.16 484.919 1760.91C486.75 1762.09 487.238 1762.53 487.726 1762.97C485.234 1768.2 482.345 1773.29 480.34 1778.7C477.186 1787.21 474.628 1795.95 470.817 1805.52C469.239 1809.18 468.66 1811.91 468.081 1814.63C462.144 1849.97 454.512 1884.86 441.846 1918.5C438.808 1926.57 436.063 1934.75 433.038 1943.28C437.043 1945.52 440.493 1942.86 445.551 1942.02C448.634 1940.93 450.25 1939.88 451.867 1938.82C463.846 1933.58 476.79 1930.19 486.585 1920.74C488.227 1919.16 490.212 1917.85 491.568 1916.06C496.111 1910.06 501.741 1908.08 509.367 1912.04C509.876 1914.29 509.892 1915.23 509.909 1916.17C503.832 1920.01 497.712 1923.79 491.693 1927.72C486.717 1930.97 481.861 1934.4 475.927 1937.95C474.477 1938.34 474.164 1938.66 473.964 1939.09C459.896 1946.56 445.537 1953.22 429.633 1955.95C427.3 1956.35 424.282 1957.75 423.19 1959.62C411.195 1980.19 394.292 1996.71 379.159 2014.75C367.939 2028.12 358.517 2043.25 349.892 2058.5C337.993 2079.53 341.086 2101.5 350.115 2122.73C357.114 2139.18 364.555 2155.51 372.836 2171.35C390.062 2204.3 399.297 2238.98 399.744 2276.29C399.977 2295.68 396.316 2314.55 395.087 2333.71C394.26 2346.59 393.145 2359.45 391.41 2373.8C390.414 2389.79 390.108 2404.31 390.007 2418.83C389.996 2420.33 391.204 2421.83 391.846 2423.34C392.393 2424.51 393.361 2425.66 393.425 2426.86C395.289 2462.07 401.191 2496.63 409.697 2530.79C419.067 2568.43 428.434 2606.06 437.704 2643.72C441.662 2659.8 445.426 2675.93 449.124 2692.07C449.616 2694.22 449.191 2696.57 449.191 2698.99C444.498 2700.39 442.84 2698.1 441.813 2694.44C438.496 2682.63 434.882 2670.9 431.739 2659.05C428.171 2645.6 424.966 2632.05 421.642 2618.53C416.255 2596.63 410.705 2574.77 405.583 2552.8C399.573 2527.03 392.903 2501.35 388.5 2475.3C385.199 2455.77 384.281 2435.73 383.669 2415.88C383.004 2394.27 383.448 2372.61 384.322 2351C384.83 2338.47 387.121 2326.01 388.639 2313.52C389.119 2309.57 389.694 2305.64 391.183 2300.56C394.957 2289.14 395.029 2278.89 391.846 2268.66C390.45 2259.99 389.012 2251.32 387.665 2242.63C383.58 2216.29 375.597 2191.41 359.287 2168.34C357.577 2166.6 356.701 2165.87 355.865 2164.56C355.061 2162.96 354.216 2161.93 353.371 2160.89C353.475 2162.24 353.579 2163.59 353.791 2165.62C354.776 2167.91 355.651 2169.51 356.526 2171.12C362.028 2186.02 367.926 2200.8 372.837 2215.9C374.842 2222.07 374.913 2228.91 375.418 2235.48C375.561 2237.34 374.128 2239.31 371.42 2241.23C368.009 2228.62 365.188 2215.81 361.024 2203.46C356.79 2190.89 351.234 2178.77 345.993 2165.1C344.471 2162 343.215 2160.27 341.958 2158.53C341.492 2158.86 341.026 2159.19 340.561 2159.51C340.978 2161.64 341.396 2163.78 341.813 2165.91C346.309 2189.63 352.01 2213.07 354.491 2237.25C358.611 2277.38 358.006 2317.57 357.2 2357.71C356.69 2383.16 352.272 2408.45 345.573 2433.16C335.686 2469.63 325.712 2506.07 314.857 2543.42C310.934 2546.6 311.402 2549.17 313.334 2551.86C310.653 2575.7 307.971 2599.54 304.214 2623.71C302.765 2624.02 302.391 2624.01 302.017 2624ZM301.838 1592.71C301.839 1591.8 301.84 1590.9 301.844 1588.66C301.848 1587.77 301.851 1586.89 302.865 1585.12C303.174 1583.39 303.483 1581.66 303.821 1578.33C303.831 1576.17 303.84 1574.01 304.053 1570.42C304.651 1567.61 305.249 1564.8 306.882 1561.13C307.208 1559.38 307.533 1557.63 308.455 1554.62C310.357 1550.75 310.152 1547.86 304.396 1546.55C304.181 1550.1 304.006 1552.99 303.846 1556.94C303.852 1557.3 303.858 1557.65 302.766 1559.11C302.449 1563.36 302.132 1567.62 300.812 1572.91C300.496 1575.26 300.18 1577.62 299.345 1581.15C298.85 1582.77 298.354 1584.39 297.853 1587.34C297.853 1588.22 297.853 1589.11 297.847 1591.33C297.849 1592.23 297.851 1593.12 297.847 1595.34C297.845 1596.23 297.842 1597.11 296.843 1598.84C295.854 1604.55 294.864 1610.27 292.797 1617.02C292.481 1620.02 292.165 1623.01 291.847 1627.5C291.839 1629 291.831 1630.5 290.761 1633.04C290.529 1635.52 290.297 1638.01 290.094 1642.14C289.292 1651.46 288.491 1660.77 286.845 1670.81C287.322 1672.03 287.799 1673.24 288.276 1674.46C288.756 1672.87 289.235 1671.28 289.782 1668.07C291.115 1658.72 292.448 1649.38 294.847 1639.08C295.18 1636.72 295.513 1634.36 295.845 1630.5C295.844 1629 295.843 1627.5 296.911 1624.96C297.219 1621.97 297.526 1618.97 298.905 1614.86C300.392 1609.12 300.605 1603.47 299.105 1597.82C299.998 1596.57 300.892 1595.32 301.838 1592.71ZM289.812 1870.6C289.817 1869.05 289.821 1867.5 289.864 1864.51C289.014 1862.93 288.164 1861.35 287.36 1857.96C287.277 1852.13 289.346 1846.08 286.379 1840.56C285.616 1840.63 284.854 1840.7 284.091 1840.77C284.805 1846.97 285.519 1853.16 285.972 1861C285.929 1862.67 285.887 1864.34 285.857 1867.35C286.519 1868.9 287.181 1870.45 287.828 1873.58C287.928 1876.3 288.028 1879.03 288.128 1881.75C288.674 1881.68 289.221 1881.62 289.767 1881.55C289.767 1878.42 289.767 1875.28 289.812 1870.6ZM283.812 1701.51C283.711 1703.02 283.611 1704.53 282.682 1706.84C282.958 1708.54 283.234 1710.24 283.523 1713.66C283.723 1716.52 283.924 1719.38 283.699 1723.79C283.196 1731.22 282.692 1738.65 281.683 1747.77C278.613 1806.75 279.657 1830.32 286.125 1841.15C286.652 1839.65 287.416 1838.52 287.368 1837.42C287.125 1831.81 286.524 1826.22 286.316 1820.61C285.396 1795.75 284.568 1770.89 284.2 1744.39C284.63 1737.02 285.059 1729.65 285.957 1720.61C286.032 1717.72 286.108 1714.83 287.025 1711.13C287.267 1710.01 287.509 1708.89 287.777 1706.23C287.791 1704.18 287.805 1702.12 287.844 1698.71C287.844 1697.8 287.844 1696.9 287.84 1694.32C287.852 1691.54 287.863 1688.75 288.413 1684.73C288.627 1682.89 288.84 1681.05 289.054 1679.21C288.325 1679.11 287.597 1679.02 286.868 1678.92C286.52 1681.26 286.172 1683.6 285.254 1687.3C284.787 1690.2 284.319 1693.09 283.846 1697.33C283.845 1698.21 283.843 1699.1 283.812 1701.51ZM307.855 1533.32C307.851 1534.22 307.846 1535.12 306.973 1536.62C307.283 1537.75 307.593 1538.89 309.311 1539.7C310.146 1537.12 310.98 1534.54 311.85 1530.64C311.886 1529.76 311.922 1528.88 312.986 1526.92C313.313 1523.4 313.639 1519.88 313.661 1515.66C313.099 1515.7 312.537 1515.74 311.328 1517.19C310.824 1520.76 310.321 1524.33 308.897 1528.64C308.554 1529.75 308.211 1530.86 307.855 1533.32ZM320.199 818.354C319.596 813.996 318.993 809.637 318.327 803.555C316.077 782.559 314.342 761.491 311.464 740.581C306.379 703.648 300.598 666.812 295.251 628.378C294.557 624.391 293.863 620.403 293.169 616.416C292.762 616.459 292.354 616.502 291.947 616.546C291.947 621.026 291.947 625.506 291.776 631.792C293.222 648.305 294.525 664.832 296.165 681.325C297.213 691.867 298.709 702.366 300.094 712.872C301.694 725.011 303.036 737.199 305.129 749.256C308.53 768.848 312.45 788.35 315.973 809.407C316.653 812.874 317.334 816.341 317.942 821.212C318.787 823.281 319.633 825.35 320.479 827.419C320.964 827.282 321.45 827.145 321.936 827.009C321.357 824.694 320.779 822.38 320.199 818.354ZM374.15 1132.69C373.917 1113.12 364.969 1095.78 360.74 1077.25C359.467 1084.66 358.984 1091.91 358.097 1099.11C357.177 1106.58 355.865 1114 354.555 1122.54C360.842 1126.35 367.261 1130.24 373.999 1135.91C373.323 1136.75 372.567 1138.38 371.983 1138.32C366.559 1137.77 361.165 1136.93 356.22 1136.23C344.372 1145.34 336.267 1156.53 332.942 1171.11C328.328 1191.34 329.56 1201.2 339.305 1211.06C339.408 1209.33 339.546 1208.15 339.54 1206.96C339.458 1190.89 343.566 1175.5 347.283 1160.08C348.775 1153.88 352.749 1152.28 358.245 1155.06C359.709 1155.8 360.959 1156.96 362.364 1157.83C369.006 1161.96 375.311 1160.94 381.895 1156.8C378.97 1149.04 376.203 1141.7 374.15 1132.69ZM354.053 1222.27C351.886 1222.27 349.718 1222.27 347.378 1222.27C353.708 1237.34 364.801 1236.28 374.281 1231.4C393.443 1221.53 400.362 1189.4 387.061 1172.29C386.03 1170.97 383.395 1170.89 380.751 1169.96C381.208 1175.51 381.712 1179.72 381.876 1183.95C382.339 1195.9 379.872 1207.11 372.149 1216.55C367.97 1221.66 362.73 1224.91 354.053 1222.27ZM367.627 1186.96C364.606 1190.44 362.011 1194.46 358.458 1197.27C354.017 1200.77 351.432 1204.94 350.111 1210.05C356.508 1215.54 359.864 1215.68 364.569 1210.93C369.923 1205.51 371.644 1193.94 367.627 1186.96ZM321.182 1464.28C318.521 1479.49 315.861 1494.7 313.2 1509.91C319.211 1499.69 328.398 1442.79 326.404 1432.69C324.567 1443.71 322.994 1453.14 321.182 1464.28ZM324.358 1223.94C329.191 1226.73 332.23 1232.68 340.504 1232.95C335.875 1226.56 331.587 1221.69 328.549 1216.14C325.315 1210.23 323.263 1203.68 320.694 1197.4C317.395 1206.56 318.887 1214.84 324.358 1223.94ZM351.566 1189.82C352.441 1190.24 353.801 1191.25 354.119 1190.99C361.856 1184.68 362.417 1174.27 354.856 1165.43C353.669 1173.46 352.585 1180.8 351.566 1189.82ZM341.23 2141.07C342.508 2139.79 343.786 2138.5 345.063 2137.22C344.423 2136.6 343.784 2135.98 343.144 2135.35C342.228 2136.96 341.312 2138.57 341.23 2141.07ZM318.383 1190.6C319.332 1190.59 320.28 1190.59 321.229 1190.58C320.981 1189.39 320.485 1187.02 320.485 1187.02C319.705 1187.78 318.924 1188.54 318.383 1190.6ZM322.928 837.951C322.588 839.934 322.248 841.917 321.908 843.9C322.487 843.947 323.066 843.995 323.645 844.042C323.645 842.295 323.645 840.549 322.928 837.951ZM288.785 1887.43C289.294 1887.97 289.804 1888.5 290.314 1889.04C290.535 1888.83 290.96 1888.44 290.948 1888.43C290.473 1887.86 289.957 1887.33 288.785 1887.43ZM273.266 1768.33C273.101 1768.44 272.937 1768.54 273.266 1768.33ZM329.888 1143.04C330.316 1143.2 330.744 1143.35 331.172 1143.51C331.034 1143.06 330.895 1142.6 329.888 1143.04ZM332.433 1138.99L333.041 1139.3C333.041 1139.3 332.917 1138.6 332.433 1138.99Z" fill="#EEEEEE"/>
</svg>
